<svg width="63" height="66" viewBox="0 0 63 66" fill="none" xmlns="http://www.w3.org/2000/svg">
<path d="M23.5833 60H9.33333C7.65363 60 6.04272 59.3327 4.85499 58.145C3.66726 56.9573 3 55.3464 3 53.6667V15.6667C3 13.987 3.66726 12.3761 4.85499 11.1883C6.04272 10.0006 7.65363 9.33333 9.33333 9.33333H47.3333C49.013 9.33333 50.6239 10.0006 51.8117 11.1883C52.9994 12.3761 53.6667 13.987 53.6667 15.6667V25.1667M41 3V15.6667M15.6667 3V15.6667M3 28.3333H34.6667" stroke="#CCCCCC" stroke-width="5" stroke-linecap="round" stroke-linejoin="round"/>
<path d="M34.6667 50.4997C34.6667 53.8591 36.0013 57.0809 38.3767 59.4564C40.7522 61.8318 43.974 63.1663 47.3334 63.1663C50.6928 63.1663 53.9146 61.8318 56.2901 59.4564C58.6656 57.0809 60.0001 53.8591 60.0001 50.4997C60.0001 47.1403 58.6656 43.9184 56.2901 41.543C53.9146 39.1675 50.6928 37.833 47.3334 37.833C43.974 37.833 40.7522 39.1675 38.3767 41.543C36.0013 43.9184 34.6667 47.1403 34.6667 50.4997Z" stroke="#CCCCCC" stroke-width="5" stroke-linecap="round" stroke-linejoin="round"/>
<path d="M47.3333 45.75V50.5L48.9166 52.0833" stroke="#CCCCCC" stroke-width="4" stroke-linecap="round" stroke-linejoin="round"/>
</svg>
