<svg xmlns="http://www.w3.org/2000/svg" xmlns:xlink="http://www.w3.org/1999/xlink" viewBox="0 0 353.09 57.29"><defs><style>.cls-1{isolation:isolate;}.cls-2{fill:url(#linear-gradient);}.cls-3{fill:url(#linear-gradient-2);}.cls-4{fill:url(#linear-gradient-3);}.cls-5{fill:url(#linear-gradient-4);}.cls-6{fill:url(#linear-gradient-5);}.cls-7{fill:url(#linear-gradient-6);}.cls-8{fill:url(#linear-gradient-7);}.cls-9{fill:url(#linear-gradient-8);}.cls-10{fill:url(#linear-gradient-9);}.cls-11{fill:url(#linear-gradient-10);}.cls-12{fill:url(#Degradado_sin_nombre_12);}.cls-13,.cls-16,.cls-19,.cls-22{mix-blend-mode:color-dodge;}.cls-13{fill:url(#Degradado_sin_nombre_10);}.cls-14,.cls-17,.cls-20,.cls-23{mix-blend-mode:multiply;}.cls-14{fill:url(#Degradado_sin_nombre_7);}.cls-15{fill:url(#Degradado_sin_nombre_28);}.cls-16{fill:url(#Degradado_sin_nombre_10-2);}.cls-17{fill:url(#Degradado_sin_nombre_7-2);}.cls-18{fill:url(#Degradado_sin_nombre_12-2);}.cls-19{fill:url(#Degradado_sin_nombre_10-3);}.cls-20{fill:url(#Degradado_sin_nombre_7-3);}.cls-21{fill:url(#Degradado_sin_nombre_28-2);}.cls-22{fill:url(#Degradado_sin_nombre_10-4);}.cls-23{fill:url(#Degradado_sin_nombre_7-4);}</style><linearGradient id="linear-gradient" x1="92.2" y1="28.8" x2="62.61" y2="45.88" gradientUnits="userSpaceOnUse"><stop offset="0" stop-color="#8853ee"/><stop offset="0.4" stop-color="#bd44ba"/><stop offset="0.8" stop-color="#ed378c"/><stop offset="1" stop-color="#ff327a"/></linearGradient><linearGradient id="linear-gradient-2" x1="126.8" y1="26.85" x2="100.33" y2="42.13" xlink:href="#linear-gradient"/><linearGradient id="linear-gradient-3" x1="154.87" y1="24.8" x2="132.8" y2="37.55" xlink:href="#linear-gradient"/><linearGradient id="linear-gradient-4" x1="188.26" y1="23.05" x2="158.68" y2="40.13" xlink:href="#linear-gradient"/><linearGradient id="linear-gradient-5" x1="210.18" y1="21.62" x2="186.43" y2="35.34" xlink:href="#linear-gradient"/><linearGradient id="linear-gradient-6" x1="235.94" y1="28.36" x2="211.17" y2="42.66" xlink:href="#linear-gradient"/><linearGradient id="linear-gradient-7" x1="270.49" y1="28.8" x2="240.9" y2="45.88" xlink:href="#linear-gradient"/><linearGradient id="linear-gradient-8" x1="302.97" y1="26.57" x2="274.68" y2="42.9" xlink:href="#linear-gradient"/><linearGradient id="linear-gradient-9" x1="323.97" y1="22.01" x2="300.62" y2="35.5" xlink:href="#linear-gradient"/><linearGradient id="linear-gradient-10" x1="352.38" y1="28.85" x2="325.61" y2="44.31" xlink:href="#linear-gradient"/><linearGradient id="Degradado_sin_nombre_12" x1="36.92" y1="15.73" x2="53.34" y2="38.97" gradientTransform="translate(-0.33 2.1) rotate(-7.06)" gradientUnits="userSpaceOnUse"><stop offset="0" stop-color="#8853ee"/><stop offset="1" stop-color="#ff327a"/></linearGradient><linearGradient id="Degradado_sin_nombre_10" x1="40.28" y1="36.35" x2="54.53" y2="36.35" gradientTransform="translate(-0.33 2.1) rotate(-7.06)" gradientUnits="userSpaceOnUse"><stop offset="0" stop-color="#70706e" stop-opacity="0.4"/><stop offset="1" stop-color="#1c1c1b"/></linearGradient><linearGradient id="Degradado_sin_nombre_7" x1="29.33" y1="31.51" x2="53.53" y2="10.18" gradientTransform="translate(-0.33 2.1) rotate(-7.06)" gradientUnits="userSpaceOnUse"><stop offset="0.01" stop-color="#fff" stop-opacity="0"/><stop offset="0.19" stop-color="#e9c6de" stop-opacity="0.24"/><stop offset="0.46" stop-color="#cb7bb2" stop-opacity="0.57"/><stop offset="0.7" stop-color="#b64493" stop-opacity="0.8"/><stop offset="0.88" stop-color="#a9227f" stop-opacity="0.95"/><stop offset="1" stop-color="#a41678"/></linearGradient><linearGradient id="Degradado_sin_nombre_28" x1="35.85" y1="35.7" x2="20.87" y2="59.06" gradientTransform="translate(-0.33 2.1) rotate(-7.06)" gradientUnits="userSpaceOnUse"><stop offset="0" stop-color="#ff327a"/><stop offset="1" stop-color="#ffc100"/></linearGradient><linearGradient id="Degradado_sin_nombre_10-2" x1="10.8" y1="51.81" x2="27.3" y2="51.81" xlink:href="#Degradado_sin_nombre_10"/><linearGradient id="Degradado_sin_nombre_7-2" x1="29.07" y1="29.11" x2="34.22" y2="61.7" xlink:href="#Degradado_sin_nombre_7"/><linearGradient id="Degradado_sin_nombre_12-2" x1="16.11" y1="41.72" x2="0.18" y2="26.86" xlink:href="#Degradado_sin_nombre_12"/><linearGradient id="Degradado_sin_nombre_10-3" x1="-3.54" y1="23.46" x2="10.71" y2="23.46" xlink:href="#Degradado_sin_nombre_10"/><linearGradient id="Degradado_sin_nombre_7-3" x1="22.21" y1="31.13" x2="-11.81" y2="48.02" xlink:href="#Degradado_sin_nombre_7"/><linearGradient id="Degradado_sin_nombre_28-2" x1="21.39" y1="21.58" x2="27.62" y2="1.45" xlink:href="#Degradado_sin_nombre_28"/><linearGradient id="Degradado_sin_nombre_10-4" x1="23.69" y1="7.99" x2="40.19" y2="7.99" xlink:href="#Degradado_sin_nombre_10"/><linearGradient id="Degradado_sin_nombre_7-4" x1="21.87" y1="22.15" x2="11.33" y2="-1.7" xlink:href="#Degradado_sin_nombre_7"/></defs><g class="cls-1"><g id="Layer_2" data-name="Layer 2"><g id="OBJECTS"><path class="cls-2" d="M64.16,48.57V32.33a12,12,0,0,1,6.58-10.92,15.84,15.84,0,0,1,7.52-1.68,15.63,15.63,0,0,1,7.51,1.68A12.06,12.06,0,0,1,90.56,26a12.36,12.36,0,0,1,1.68,6.38V48.57H83.65v-16a5.14,5.14,0,0,0-.72-2.69,5.8,5.8,0,0,0-2-2,5.3,5.3,0,0,0-2.84-.77,5.39,5.39,0,0,0-2.8.75,5.17,5.17,0,0,0-2,2,5.34,5.34,0,0,0-.72,2.69v16Z"/><path class="cls-3" d="M113.59,49.23a15.83,15.83,0,0,1-7.81-1.92A14.66,14.66,0,0,1,100.27,42a14.34,14.34,0,0,1-2-7.6,14.1,14.1,0,0,1,2-7.51,14.72,14.72,0,0,1,5.53-5.26,15.92,15.92,0,0,1,7.79-1.92,15.7,15.7,0,0,1,7.79,1.92,14.64,14.64,0,0,1,5.45,5.26,14.35,14.35,0,0,1,2,7.57,14.4,14.4,0,0,1-2,7.54,14.57,14.57,0,0,1-5.45,5.29A15.7,15.7,0,0,1,113.59,49.23Zm0-7.43a6.36,6.36,0,0,0,3.55-1,6.64,6.64,0,0,0,2.34-2.64,8.27,8.27,0,0,0,.82-3.75,8.12,8.12,0,0,0-.82-3.68,6.64,6.64,0,0,0-2.34-2.64,6.28,6.28,0,0,0-3.55-1,6.19,6.19,0,0,0-3.5,1,6.64,6.64,0,0,0-2.34,2.64,8.12,8.12,0,0,0-.82,3.68,8.27,8.27,0,0,0,.82,3.75A6.64,6.64,0,0,0,110,40.81,6.26,6.26,0,0,0,113.54,41.8Z"/><path class="cls-4" d="M131.32,27.32v-7h21v7Zm12.93,21.25a7.66,7.66,0,0,1-8.31-8.26V13.45h8.59V39.82A1.51,1.51,0,0,0,145,41a1.53,1.53,0,0,0,1.12.47h6.17v7.15Z"/><path class="cls-5" d="M172.71,49.23a15.68,15.68,0,0,1-7.51-1.7A12.39,12.39,0,0,1,160.33,43a12.15,12.15,0,0,1-1.71-6.41V20.33h8.53v16a5.39,5.39,0,0,0,2.7,4.71,5.49,5.49,0,0,0,2.81.74,5.38,5.38,0,0,0,2.78-.74,5.6,5.6,0,0,0,1.95-2,5.36,5.36,0,0,0,.72-2.73v-16h8.58V36.57a12.05,12.05,0,0,1-6.49,11A15.55,15.55,0,0,1,172.71,49.23Z"/><path class="cls-6" d="M194.07,48.57V8.39h8.47V48.57Z"/><path class="cls-7" d="M224.78,48.57a18.73,18.73,0,0,1-8.42-1.79,13.76,13.76,0,0,1-5.67-5,13.31,13.31,0,0,1-2-7.32,15.37,15.37,0,0,1,2-7.95,13.39,13.39,0,0,1,5.17-5.1A14.78,14.78,0,0,1,223,19.67a13.79,13.79,0,0,1,7.43,1.87,12.05,12.05,0,0,1,4.51,5.12A16.86,16.86,0,0,1,236.45,34c0,.52,0,1.09-.08,1.71a8.13,8.13,0,0,1-.25,1.49H217.63A6.07,6.07,0,0,0,219,39.63a5.2,5.2,0,0,0,2.34,1.43,10.71,10.71,0,0,0,3.27.47h8.53v7Zm-7.32-16.73h10.73a10.57,10.57,0,0,0-.35-1.71,5.93,5.93,0,0,0-.66-1.46,4.87,4.87,0,0,0-1.05-1.13,4.47,4.47,0,0,0-1.46-.74,6.29,6.29,0,0,0-1.76-.25,5.25,5.25,0,0,0-2.26.47A5.36,5.36,0,0,0,219,28.2a5.12,5.12,0,0,0-1,1.68A10.71,10.71,0,0,0,217.46,31.84Z"/><path class="cls-8" d="M242.45,48.57V32.33A12,12,0,0,1,249,21.41a15.8,15.8,0,0,1,7.51-1.68,15.58,15.58,0,0,1,7.51,1.68A12,12,0,0,1,268.84,26a12.36,12.36,0,0,1,1.68,6.38V48.57h-8.58v-16a5.14,5.14,0,0,0-.72-2.69,5.89,5.89,0,0,0-2-2,5.3,5.3,0,0,0-2.84-.77,5.42,5.42,0,0,0-2.81.75,5.45,5.45,0,0,0-2.69,4.7v16Z"/><path class="cls-9" d="M278,48.57V41.75h13.6a2,2,0,0,0,1-.25,2,2,0,0,0,.69-.66,1.8,1.8,0,0,0,.25-.91,2.26,2.26,0,0,0-.22-1,1.7,1.7,0,0,0-.67-.66,2.26,2.26,0,0,0-1.1-.25h-4.95a12.88,12.88,0,0,1-4.93-.91,7.69,7.69,0,0,1-3.55-2.86,8.81,8.81,0,0,1-1.32-5A8.34,8.34,0,0,1,278,24.74a9.31,9.31,0,0,1,3.28-3.2,8.86,8.86,0,0,1,4.54-1.21h13.59v6.83H287.09a1.91,1.91,0,0,0-1.29.49,1.59,1.59,0,0,0-.58,1.27,1.64,1.64,0,0,0,.55,1.24,1.85,1.85,0,0,0,1.32.52h4.84a14.14,14.14,0,0,1,5.34.91,7,7,0,0,1,3.47,2.89A9.68,9.68,0,0,1,302,39.6a8.45,8.45,0,0,1-1.24,4.51,9.26,9.26,0,0,1-3.3,3.25,9,9,0,0,1-4.65,1.21Z"/><path class="cls-10" d="M312.41,17.14a4.8,4.8,0,0,1-3.52-1.48,5,5,0,0,1,0-7.11,4.8,4.8,0,0,1,3.52-1.48,5.05,5.05,0,0,1,5.06,5.06,5.05,5.05,0,0,1-5.06,5Zm-4.24,31.43V20.33h8.59V48.57Z"/><path class="cls-11" d="M335.47,49.23a11.6,11.6,0,0,1-6.63-1.9,12.93,12.93,0,0,1-4.46-5.23,16.67,16.67,0,0,1-1.62-7.4,15.4,15.4,0,0,1,1.9-7.68A14,14,0,0,1,330,21.65a16.08,16.08,0,0,1,8.17-2,15.4,15.4,0,0,1,8,2A13.68,13.68,0,0,1,351.3,27a15.85,15.85,0,0,1,1.79,7.55v14h-8.37V44.06h-.17a11.09,11.09,0,0,1-2.06,2.67,8.78,8.78,0,0,1-2.94,1.84A11.33,11.33,0,0,1,335.47,49.23ZM338,41.86a5.85,5.85,0,0,0,3.38-1,6.4,6.4,0,0,0,2.2-2.67,8.85,8.85,0,0,0,.8-3.8,8.66,8.66,0,0,0-.77-3.68,6.27,6.27,0,0,0-2.23-2.62,6,6,0,0,0-3.38-1,6.09,6.09,0,0,0-3.47,1,6.35,6.35,0,0,0-2.26,2.61,8.53,8.53,0,0,0-.77,3.66,9.15,9.15,0,0,0,.77,3.8,6.11,6.11,0,0,0,2.23,2.67A6.22,6.22,0,0,0,338,41.86Z"/><g id="_Repetición_radial_" data-name="&lt;Repetición radial&gt;"><path class="cls-12" d="M45.84,28.11A6.7,6.7,0,0,0,51.56,30c3.57-.49,6.11-3.47,5.68-6.67s-3.69-5.39-7.26-4.9a6.88,6.88,0,0,0-4.2,2.17c2.38-6.67,10.7-9.71,10.7-9.71s-19.87-4.3-25,17.26c0,0,13.36,5.25,13.67,13.31C45.12,41.41,48.31,36.49,45.84,28.11Z"/><path class="cls-13" d="M45.84,28.11A6.7,6.7,0,0,0,51.56,30c3.57-.49,6.11-3.47,5.68-6.67-.07,2.46-2.26,5.23-5.87,5.85s-6.46-2.77-6.46-2.77c2.13,9.27.21,15,.21,15S48.31,36.49,45.84,28.11Z"/><path class="cls-14" d="M56.48,10.84s-19.87-4.3-25,17.26A38,38,0,0,1,37,30.94C38.82,11.39,56.48,10.84,56.48,10.84Z"/></g><g id="_Repetición_radial_2" data-name="&lt;Repetición radial&gt;"><path class="cls-15" d="M29.17,45.84a6.76,6.76,0,0,0-1.84,5.72c.49,3.57,3.48,6.11,6.67,5.68s5.39-3.69,4.91-7.26a6.94,6.94,0,0,0-2.18-4.2c6.67,2.38,9.72,10.7,9.72,10.7s4.29-19.87-17.27-25c0,0-5.25,13.36-13.31,13.67C15.87,45.12,20.79,48.31,29.17,45.84Z"/><path class="cls-16" d="M29.17,45.84a6.76,6.76,0,0,0-1.84,5.72c.49,3.57,3.48,6.11,6.67,5.68-2.45-.07-5.23-2.26-5.85-5.87s2.77-6.46,2.77-6.46c-9.26,2.13-15.05.21-15.05.21S20.79,48.31,29.17,45.84Z"/><path class="cls-17" d="M46.45,56.48s4.29-19.87-17.27-25A36.77,36.77,0,0,1,26.34,37C45.9,38.82,46.45,56.48,46.45,56.48Z"/></g><g id="_Repetición_radial_3" data-name="&lt;Repetición radial&gt;"><path class="cls-18" d="M11.45,29.17a6.78,6.78,0,0,0-5.73-1.84C2.15,27.82-.39,30.81.05,34s3.68,5.39,7.25,4.91a7,7,0,0,0,4.21-2.18C9.13,43.4.8,46.45.8,46.45s19.87,4.29,25-17.27c0,0-13.35-5.25-13.67-13.31C12.16,15.87,9,20.79,11.45,29.17Z"/><path class="cls-19" d="M11.45,29.17a6.78,6.78,0,0,0-5.73-1.84C2.15,27.82-.39,30.81.05,34c.07-2.45,2.25-5.23,5.87-5.85s6.45,2.77,6.45,2.77c-2.12-9.26-.21-15.05-.21-15.05S9,20.79,11.45,29.17Z"/><path class="cls-20" d="M.8,46.45s19.87,4.29,25-17.27a37,37,0,0,1-5.5-2.84C18.47,45.9.8,46.45.8,46.45Z"/></g><g id="_Repetición_radial_4" data-name="&lt;Repetición radial&gt;"><path class="cls-21" d="M28.11,11.45A6.72,6.72,0,0,0,30,5.72C29.46,2.15,26.48-.39,23.28.05s-5.39,3.68-4.9,7.25a6.9,6.9,0,0,0,2.17,4.21C13.88,9.13,10.84.8,10.84.8s-4.3,19.87,17.26,25c0,0,5.25-13.35,13.31-13.67C41.41,12.16,36.5,9,28.11,11.45Z"/><path class="cls-22" d="M28.11,11.45A6.72,6.72,0,0,0,30,5.72C29.46,2.15,26.48-.39,23.28.05c2.46.07,5.24,2.25,5.85,5.87s-2.77,6.45-2.77,6.45c9.27-2.12,15-.21,15-.21S36.5,9,28.11,11.45Z"/><path class="cls-23" d="M10.84.8s-4.3,19.87,17.26,25a38.16,38.16,0,0,1,2.84-5.5C11.39,18.47,10.84.8,10.84.8Z"/></g></g></g></g></svg>