<svg width="450" height="73" viewBox="0 0 450 73" fill="none" xmlns="http://www.w3.org/2000/svg">
<g clip-path="url(#clip0_1106_1454)">
<path d="M81.8184 61.9162V41.15C81.8184 38.2198 82.583 35.417 83.9849 32.9964C85.3868 30.5758 87.5533 28.6648 90.2296 27.2634C92.9059 25.8621 96.0919 25.0977 99.7878 25.0977C103.484 25.0977 106.67 25.8621 109.346 27.2634C112.022 28.6648 114.061 30.5758 115.463 32.9964C116.865 35.417 117.63 38.0924 117.63 41.15V61.7888H106.67V41.4048C106.67 40.1308 106.415 38.9842 105.778 37.965C105.14 36.9458 104.376 36.054 103.229 35.417C102.209 34.78 100.935 34.3978 99.6603 34.3978C98.3859 34.3978 97.1115 34.6526 96.0919 35.2896C95.0724 35.9266 94.1803 36.8184 93.5431 37.8376C92.9059 38.8568 92.651 40.0034 92.651 41.2774V61.6614H81.8184V61.9162Z" fill="#334798"/>
<path d="M144.775 62.6806C141.079 62.6806 137.766 61.9162 134.835 60.26C131.903 58.6038 129.609 56.438 127.825 53.5078C126.041 50.705 125.276 47.3926 125.276 43.8254C125.276 40.2582 126.168 37.0732 127.825 34.2704C129.609 31.4676 131.903 29.1744 134.835 27.5182C137.766 25.8621 141.079 25.0977 144.775 25.0977C148.471 25.0977 151.784 25.8621 154.716 27.5182C157.647 29.1744 159.941 31.3402 161.598 34.2704C163.254 37.0732 164.146 40.2582 164.146 43.9528C164.146 47.52 163.254 50.705 161.598 53.5078C159.941 56.3106 157.519 58.6038 154.716 60.26C151.784 61.9162 148.471 62.6806 144.775 62.6806ZM144.648 53.253C146.432 53.253 147.834 52.8708 149.236 51.979C150.51 51.0872 151.53 50.068 152.167 48.6666C152.804 47.2652 153.186 45.7364 153.186 43.9528C153.186 42.1692 152.804 40.6404 152.167 39.239C151.402 37.8376 150.51 36.691 149.236 35.9266C147.961 35.0348 146.432 34.6526 144.648 34.6526C142.991 34.6526 141.462 35.0348 140.187 35.9266C138.913 36.8184 137.893 37.8376 137.256 39.239C136.491 40.6404 136.236 42.1692 136.236 43.9528C136.236 45.7364 136.619 47.2652 137.256 48.6666C137.893 50.068 138.913 51.2146 140.187 51.979C141.589 52.8708 142.991 53.253 144.648 53.253Z" fill="#334798"/>
<path d="M167.333 34.7804V25.8624H194.095V34.7804H167.333ZM183.9 61.9165C180.587 61.9165 178.038 61.0247 176.126 59.1137C174.214 57.2027 173.322 54.6547 173.322 51.4697V17.1992H184.282V50.8327C184.282 51.3423 184.537 51.8519 184.92 52.2341C185.302 52.6163 185.812 52.8711 186.321 52.8711H194.223V62.0439H183.9V61.9165Z" fill="#334798"/>
<path d="M220.093 62.6808C216.398 62.6808 213.212 61.9164 210.535 60.515C207.859 59.1136 205.82 57.0752 204.291 54.782C202.889 52.3614 202.124 49.686 202.124 46.6284V25.8623H212.957V46.2462C212.957 47.5202 213.212 48.6668 213.849 49.686C214.486 50.7052 215.251 51.597 216.398 52.234C217.417 52.871 218.692 53.1258 219.966 53.1258C221.24 53.1258 222.515 52.871 223.534 52.234C224.554 51.597 225.446 50.7052 226.083 49.686C226.72 48.6668 226.975 47.5202 226.975 46.2462V25.8623H237.935V46.501C237.935 49.5586 237.171 52.234 235.769 54.6546C234.367 57.0752 232.328 58.9862 229.652 60.3876C226.975 62.0438 223.789 62.6808 220.093 62.6808Z" fill="#334798"/>
<path d="M247.366 61.9158V10.7012H258.199V61.9158H247.366Z" fill="#334798"/>
<path d="M286.491 61.9166C282.413 61.9166 278.845 61.1522 275.786 59.6234C272.728 58.0946 270.306 55.9288 268.522 53.2534C266.738 50.578 265.973 47.393 265.973 43.9533C265.973 40.0039 266.865 36.6915 268.522 33.7613C270.179 30.9585 272.345 28.7927 275.149 27.2639C277.825 25.7351 280.884 24.9707 284.325 24.9707C288.148 24.9707 291.207 25.7351 293.756 27.3913C296.305 28.9201 298.216 31.2133 299.491 33.8887C300.765 36.6915 301.402 39.7491 301.402 43.1889C301.402 43.8259 301.402 44.5902 301.275 45.3546C301.147 46.119 301.147 46.756 301.02 47.2656H277.443C277.825 48.5396 278.335 49.5588 279.1 50.3232C279.864 51.0876 280.884 51.7246 282.031 52.1068C283.305 52.489 284.707 52.7438 286.237 52.7438H297.069V61.6618H286.491V61.9166ZM277.188 40.5135H290.824C290.697 39.7491 290.57 38.9847 290.315 38.3477C290.06 37.5833 289.805 37.0737 289.423 36.4367C289.04 35.9271 288.658 35.4175 288.148 35.0353C287.638 34.6531 287.001 34.2709 286.237 34.1435C285.599 33.8887 284.835 33.8887 283.943 33.8887C282.923 33.8887 281.903 34.1435 281.011 34.5257C280.119 34.9079 279.482 35.4175 278.845 36.0545C278.335 36.6915 277.825 37.3285 277.57 38.2203C277.443 38.8573 277.316 39.7491 277.188 40.5135Z" fill="#334798"/>
<path d="M308.921 61.9162V41.15C308.921 38.2198 309.686 35.417 311.088 32.9964C312.49 30.5758 314.656 28.6648 317.333 27.2634C320.009 25.8621 323.195 25.0977 326.891 25.0977C330.587 25.0977 333.773 25.8621 336.449 27.2634C339.125 28.6648 341.164 30.5758 342.566 32.9964C343.968 35.417 344.733 38.0924 344.733 41.15V61.7888H333.773V41.4048C333.773 40.1308 333.518 38.9842 332.881 37.965C332.243 36.9458 331.479 36.054 330.332 35.417C329.312 34.78 328.038 34.3978 326.763 34.3978C325.489 34.3978 324.215 34.6526 323.195 35.2896C322.175 35.9266 321.283 36.8184 320.646 37.8376C320.009 38.8568 319.754 40.0034 319.754 41.2774V61.6614H308.921V61.9162Z" fill="#334798"/>
<path d="M354.291 61.916V53.2528H371.623C372.133 53.2528 372.515 53.1254 372.897 52.998C373.279 52.7432 373.534 52.4884 373.789 52.1062C374.044 51.724 374.044 51.3418 374.044 50.9596C374.044 50.45 373.917 50.0678 373.789 49.6856C373.662 49.3034 373.279 49.0486 372.897 48.7938C372.515 48.539 372.005 48.539 371.495 48.539H365.123C362.829 48.539 360.79 48.1568 358.878 47.3924C356.967 46.628 355.438 45.354 354.291 43.6978C353.144 42.0416 352.634 39.8758 352.634 37.3278C352.634 35.162 353.144 33.3784 354.163 31.5948C355.183 29.9386 356.585 28.5373 358.369 27.5181C360.153 26.4989 362.065 25.9893 364.104 25.9893H381.436V34.6524H365.76C365.123 34.6524 364.613 34.9072 364.104 35.2894C363.594 35.6716 363.339 36.3086 363.339 36.9456C363.339 37.5826 363.594 38.0922 364.104 38.4744C364.613 38.8566 365.123 39.1114 365.76 39.1114H371.878C374.554 39.1114 376.72 39.4936 378.632 40.258C380.544 41.0224 382.073 42.2964 383.093 43.9526C384.112 45.6088 384.622 47.7746 384.622 50.45C384.622 52.6158 384.112 54.5268 383.093 56.183C382.073 57.9666 380.671 59.2406 378.887 60.2598C377.103 61.279 375.191 61.7886 372.897 61.7886H354.291V61.916Z" fill="#334798"/>
<path d="M398.131 21.7853C396.347 21.7853 394.945 21.1483 393.67 19.8743C392.396 18.6003 391.759 17.0715 391.759 15.4154C391.759 13.6318 392.396 12.103 393.67 10.829C394.945 9.55497 396.474 8.91797 398.131 8.91797C399.915 8.91797 401.444 9.55497 402.719 10.829C403.993 12.103 404.631 13.6318 404.631 15.4154C404.631 17.1989 403.993 18.6003 402.719 19.8743C401.444 21.1483 399.915 21.7853 398.131 21.7853ZM392.778 61.9162V25.8621H403.738V61.7888H392.778V61.9162Z" fill="#334798"/>
<path d="M427.57 62.681C424.384 62.681 421.58 61.9166 419.159 60.2604C416.737 58.6042 414.826 56.4384 413.424 53.6356C412.022 50.8328 411.385 47.6478 411.385 44.208C411.385 40.5135 412.149 37.3285 413.806 34.3983C415.463 31.4681 417.629 29.3023 420.561 27.5187C423.492 25.8625 426.933 24.9707 431.011 24.9707C434.962 24.9707 438.403 25.8625 441.206 27.5187C444.01 29.1749 446.177 31.4681 447.706 34.2709C449.235 37.0737 450 40.3861 450 43.8259V61.6618H439.295V55.9288H439.04C438.403 57.2028 437.511 58.3494 436.364 59.3686C435.344 60.3878 434.07 61.1522 432.668 61.6618C431.266 62.4262 429.482 62.681 427.57 62.681ZM430.756 53.3808C432.413 53.3808 433.815 52.9986 435.089 52.1068C436.236 51.3424 437.256 50.1958 437.893 48.667C438.53 47.2656 438.912 45.6094 438.912 43.8259C438.912 42.0423 438.53 40.5135 437.893 39.1121C437.256 37.7107 436.236 36.5641 435.089 35.7997C433.815 35.0353 432.413 34.5257 430.756 34.5257C429.099 34.5257 427.57 34.9079 426.296 35.7997C425.021 36.6915 424.129 37.7107 423.364 39.1121C422.727 40.5135 422.345 42.0423 422.345 43.8259C422.345 45.6094 422.727 47.2656 423.364 48.667C424.002 50.0684 425.021 51.215 426.168 52.1068C427.57 52.8712 428.972 53.3808 430.756 53.3808Z" fill="#334798"/>
<path d="M58.3688 35.7988C60.153 37.5824 62.8293 38.4742 65.6331 38.092C70.221 37.455 73.4071 33.633 72.8973 29.5563C72.3875 25.4795 68.1819 22.6767 63.594 23.3137C61.4275 23.5685 59.5158 24.5877 58.2414 26.1165C61.3 17.5807 71.8778 13.7587 71.8778 13.7587C71.8778 13.7587 46.5167 8.28051 40.0171 35.7988C40.0171 35.7988 57.0944 42.4236 57.4767 52.743C57.4767 52.743 61.5549 46.5004 58.3688 35.7988Z" fill="#334798"/>
<path d="M58.3687 35.7992C60.1529 37.5828 62.8292 38.4746 65.6329 38.0924C70.2208 37.4554 73.4069 33.6334 72.8971 29.5566C72.7697 32.7416 69.9659 36.1814 65.378 37.0732C60.7901 37.8376 57.0942 33.506 57.0942 33.506C59.7705 45.3542 57.3491 52.616 57.3491 52.616C57.3491 52.616 61.5547 46.5008 58.3687 35.7992Z" fill="#334798"/>
<path d="M72.0052 13.7587C72.0052 13.7587 46.6441 8.28051 40.1445 35.7988C40.1445 35.7988 43.458 37.0728 47.1539 39.366C49.4478 14.5231 72.0052 13.7587 72.0052 13.7587Z" fill="#334798"/>
<path d="M37.2131 58.3485C35.4289 60.1321 34.5368 62.8075 34.9191 65.6103C35.5563 70.1966 39.3796 73.3816 43.4577 72.872C47.5359 72.3624 50.3396 68.1583 49.7024 63.5719C49.4475 61.4061 48.428 59.4951 46.8987 58.2211C55.4374 61.2787 59.2606 71.8528 59.2606 71.8528C59.2606 71.8528 64.7407 46.5003 37.2131 40.0029C37.2131 40.0029 30.586 57.0745 20.2632 57.4567C20.2632 57.4567 26.5079 61.5335 37.2131 58.3485Z" fill="#334798"/>
<path d="M37.2131 58.3482C35.4289 60.1318 34.5368 62.8072 34.9191 65.61C35.5563 70.1964 39.3796 73.3814 43.4577 72.8718C40.2717 72.7444 36.8307 69.9416 35.9386 65.3552C35.174 60.7688 39.507 57.0742 39.507 57.0742C27.6549 59.7496 20.3906 57.329 20.3906 57.329C20.3906 57.329 26.5079 61.5332 37.2131 58.3482Z" fill="#334798"/>
<path d="M59.1331 71.9798C59.1331 71.9798 64.6131 46.6273 37.0855 40.1299C37.0855 40.1299 35.8111 43.4423 33.5171 47.1369C58.4958 49.4301 59.1331 71.9798 59.1331 71.9798Z" fill="#334798"/>
<path d="M14.5285 37.2005C12.8717 35.4169 10.1955 34.3977 7.26427 34.7799C2.80378 35.4169 -0.509729 39.2389 4.13507e-05 43.3156C0.509812 47.3924 4.71542 50.1952 9.30336 49.5582C11.4699 49.3034 13.3815 48.2842 14.6559 46.7554C11.5973 55.2912 1.01958 59.1132 1.01958 59.1132C1.01958 59.1132 26.3807 64.5914 32.8802 37.0731C32.8802 37.0731 15.8029 30.4483 15.4206 20.1289C15.548 20.2563 11.4699 26.4989 14.5285 37.2005Z" fill="#334798"/>
<path d="M14.5285 37.2C12.8717 35.4164 10.1955 34.3972 7.26427 34.7794C2.80378 35.4164 -0.509729 39.2384 4.13507e-05 43.3152C0.127484 40.1302 2.93122 36.6904 7.51916 35.7986C12.1071 35.0342 15.8029 39.3658 15.8029 39.3658C13.1266 27.5176 15.548 20.2559 15.548 20.2559C15.548 20.2559 11.4699 26.4984 14.5285 37.2Z" fill="#334798"/>
<path d="M1.01953 59.1132C1.01953 59.1132 26.3806 64.5914 32.8802 37.0731C32.8802 37.0731 29.5667 35.7991 25.8708 33.5059C23.5769 58.4762 1.01953 59.1132 1.01953 59.1132Z" fill="#334798"/>
<path d="M35.8113 14.5233C37.5955 12.7397 38.4876 10.0644 38.1053 7.26156C37.4681 2.67518 33.6448 -0.509815 29.5666 -0.000216395C25.4885 0.509382 22.6847 4.71357 23.3219 9.29996C23.5768 11.4658 24.5964 13.3767 26.1257 14.6507C17.587 11.5932 13.7637 1.01898 13.7637 1.01898C13.7637 1.01898 8.2837 26.3715 35.8113 32.8689C35.8113 32.8689 42.4383 15.7973 52.7612 15.4151C52.7612 15.5425 46.5165 11.4658 35.8113 14.5233Z" fill="#334798"/>
<path d="M35.8111 14.5233C37.5953 12.7397 38.4874 10.0644 38.1051 7.26156C37.4678 2.67518 33.6446 -0.509815 29.5664 -0.000216395C32.7525 0.127183 36.1934 2.92998 37.0855 7.51636C37.8502 12.1027 33.5171 15.7973 33.5171 15.7973C45.3693 13.1219 52.6335 15.5425 52.6335 15.5425C52.6335 15.5425 46.5163 11.4658 35.8111 14.5233Z" fill="#334798"/>
<path d="M13.7637 1.01855C13.7637 1.01855 8.28369 26.3711 35.8113 32.8685C35.8113 32.8685 37.0857 29.5561 39.3797 25.8615C14.5284 23.5683 13.7637 1.01855 13.7637 1.01855Z" fill="#334798"/>
</g>
<defs>
<clipPath id="clip0_1106_1454">
<rect width="450" height="73" fill="white"/>
</clipPath>
</defs>
</svg>
