<svg width="228" height="65" viewBox="0 0 228 65" fill="none" xmlns="http://www.w3.org/2000/svg">
  <path fill-rule="evenodd" clip-rule="evenodd"
    d="M32.5 17.875C27.7593 17.875 23.2127 19.7583 19.8605 23.1105C16.5083 26.4627 14.625 31.0093 14.625 35.75C14.625 40.4907 16.5083 45.0373 19.8605 48.3895C23.2127 51.7417 27.7593 53.625 32.5 53.625C37.2407 53.625 41.7873 51.7417 45.1395 48.3895C48.4917 45.0373 50.375 40.4907 50.375 35.75C50.375 31.0093 48.4917 26.4627 45.1395 23.1105C41.7873 19.7583 37.2407 17.875 32.5 17.875ZM8.125 35.75C8.125 29.2853 10.6931 23.0855 15.2643 18.5143C19.8355 13.9431 26.0353 11.375 32.5 11.375C38.9647 11.375 45.1645 13.9431 49.7357 18.5143C54.3069 23.0855 56.875 29.2853 56.875 35.75C56.875 42.2147 54.3069 48.4145 49.7357 52.9857C45.1645 57.5569 38.9647 60.125 32.5 60.125C26.0353 60.125 19.8355 57.5569 15.2643 52.9857C10.6931 48.4145 8.125 42.2147 8.125 35.75Z"
    fill="#699BF7" />
  <path fill-rule="evenodd" clip-rule="evenodd"
    d="M9.07729 59.1728C9.68675 59.782 10.5133 60.1243 11.375 60.1243C12.2368 60.1243 13.0633 59.782 13.6728 59.1728L18.5478 54.2978C18.8582 53.998 19.1058 53.6393 19.2761 53.2428C19.4464 52.8463 19.5361 52.4198 19.5399 51.9883C19.5436 51.5568 19.4614 51.1288 19.298 50.7294C19.1345 50.33 18.8932 49.9671 18.5881 49.662C18.2829 49.3568 17.9201 49.1155 17.5206 48.9521C17.1212 48.7887 16.6933 48.7064 16.2617 48.7102C15.8302 48.7139 15.4037 48.8036 15.0072 48.9739C14.6107 49.1443 14.2521 49.3918 13.9523 49.7023L9.07729 54.5772C8.46801 55.1867 8.12573 56.0132 8.12573 56.875C8.12573 57.7368 8.46801 58.5633 9.07729 59.1728ZM46.4523 49.7023C47.0618 49.093 47.8883 48.7507 48.75 48.7507C49.6118 48.7507 50.4383 49.093 51.0478 49.7023L55.9228 54.5772C56.5148 55.1902 56.8424 56.0112 56.835 56.8633C56.8276 57.7154 56.4858 58.5306 55.8832 59.1332C55.2806 59.7357 54.4655 60.0775 53.6133 60.0849C52.7612 60.0924 51.9403 59.7648 51.3273 59.1728L46.4523 54.2978C45.843 53.6883 45.5007 52.8618 45.5007 52C45.5007 51.1382 45.843 50.3117 46.4523 49.7023ZM32.5 22.75C33.362 22.75 34.1886 23.0924 34.7981 23.7019C35.4076 24.3114 35.75 25.138 35.75 26V35.75C35.75 36.612 35.4076 37.4386 34.7981 38.0481C34.1886 38.6576 33.362 39 32.5 39C31.6381 39 30.8114 38.6576 30.2019 38.0481C29.5924 37.4386 29.25 36.612 29.25 35.75V26C29.25 25.138 29.5924 24.3114 30.2019 23.7019C30.8114 23.0924 31.6381 22.75 32.5 22.75Z"
    fill="#699BF7" />
  <path fill-rule="evenodd" clip-rule="evenodd"
    d="M45.5001 35.7501C45.5001 36.6121 45.1577 37.4387 44.5482 38.0482C43.9387 38.6577 43.112 39.0001 42.2501 39.0001H32.5001C31.6381 39.0001 30.8115 38.6577 30.202 38.0482C29.5925 37.4387 29.2501 36.6121 29.2501 35.7501C29.2501 34.8882 29.5925 34.0615 30.202 33.452C30.8115 32.8426 31.6381 32.5001 32.5001 32.5001H42.2501C43.112 32.5001 43.9387 32.8426 44.5482 33.452C45.1577 34.0615 45.5001 34.8882 45.5001 35.7501ZM20.5791 10.3091L8.36558 21.9701C8.36558 21.9701 8.11533 21.7426 7.74808 21.3266C6.91283 20.3776 5.48283 18.4634 5.07983 16.1234C4.71258 13.9979 5.19358 11.5181 7.73833 9.08714C10.2831 6.65939 12.7791 6.29214 14.8883 6.75689C17.2056 7.26714 19.0516 8.78489 19.9616 9.66239C20.3613 10.0459 20.5791 10.3091 20.5791 10.3091ZM44.4211 10.3091L56.6346 21.9701C56.6346 21.9701 56.8848 21.7426 57.2521 21.3266C58.0873 20.3776 59.5173 18.4634 59.9203 16.1234C60.2876 13.9979 59.8066 11.5181 57.2618 9.08714C54.7171 6.65939 52.2211 6.29214 50.1118 6.75689C47.7946 7.26714 45.9486 8.78489 45.0386 9.66239C44.6388 10.0459 44.4211 10.3091 44.4211 10.3091Z"
    fill="#699BF7" />
  <path
    d="M92.424 29.536V52H86.952V38.528L81.928 52H77.512L72.456 38.496V52H66.984V29.536H73.448L79.752 45.088L85.992 29.536H92.424ZM113.831 42.784C113.831 43.296 113.799 43.8293 113.735 44.384H101.351C101.436 45.4933 101.788 46.3467 102.407 46.944C103.047 47.52 103.826 47.808 104.743 47.808C106.108 47.808 107.058 47.232 107.591 46.08H113.415C113.116 47.2533 112.572 48.3093 111.783 49.248C111.015 50.1867 110.044 50.9227 108.871 51.456C107.698 51.9893 106.386 52.256 104.935 52.256C103.186 52.256 101.628 51.8827 100.263 51.136C98.8977 50.3893 97.831 49.3227 97.063 47.936C96.295 46.5493 95.911 44.928 95.911 43.072C95.911 41.216 96.2843 39.5947 97.031 38.208C97.799 36.8213 98.8657 35.7547 100.231 35.008C101.596 34.2613 103.164 33.888 104.935 33.888C106.663 33.888 108.199 34.2507 109.543 34.976C110.887 35.7013 111.932 36.736 112.679 38.08C113.447 39.424 113.831 40.992 113.831 42.784ZM108.231 41.344C108.231 40.4053 107.911 39.6587 107.271 39.104C106.631 38.5493 105.831 38.272 104.871 38.272C103.954 38.272 103.175 38.5387 102.535 39.072C101.916 39.6053 101.532 40.3627 101.383 41.344H108.231ZM134.19 42.784C134.19 43.296 134.158 43.8293 134.094 44.384H121.71C121.795 45.4933 122.147 46.3467 122.766 46.944C123.406 47.52 124.184 47.808 125.102 47.808C126.467 47.808 127.416 47.232 127.95 46.08H133.774C133.475 47.2533 132.931 48.3093 132.142 49.248C131.374 50.1867 130.403 50.9227 129.23 51.456C128.056 51.9893 126.744 52.256 125.294 52.256C123.544 52.256 121.987 51.8827 120.622 51.136C119.256 50.3893 118.19 49.3227 117.422 47.936C116.654 46.5493 116.27 44.928 116.27 43.072C116.27 41.216 116.643 39.5947 117.39 38.208C118.158 36.8213 119.224 35.7547 120.59 35.008C121.955 34.2613 123.523 33.888 125.294 33.888C127.022 33.888 128.558 34.2507 129.902 34.976C131.246 35.7013 132.291 36.736 133.038 38.08C133.806 39.424 134.19 40.992 134.19 42.784ZM128.59 41.344C128.59 40.4053 128.27 39.6587 127.63 39.104C126.99 38.5493 126.19 38.272 125.23 38.272C124.312 38.272 123.534 38.5387 122.894 39.072C122.275 39.6053 121.891 40.3627 121.742 41.344H128.59ZM147.668 47.36V52H144.884C142.9 52 141.354 51.52 140.244 50.56C139.135 49.5787 138.58 47.9893 138.58 45.792V38.688H136.404V34.144H138.58V29.792H144.052V34.144H147.636V38.688H144.052V45.856C144.052 46.3893 144.18 46.7733 144.436 47.008C144.692 47.2427 145.119 47.36 145.716 47.36H147.668ZM153.34 31.616C152.786 31.616 152.316 31.424 151.932 31.04C151.548 30.656 151.356 30.1867 151.356 29.632C151.356 29.0773 151.548 28.608 151.932 28.224C152.316 27.84 152.786 27.648 153.34 27.648C153.874 27.648 154.322 27.84 154.684 28.224C155.068 28.608 155.26 29.0773 155.26 29.632C155.26 30.1867 155.068 30.656 154.684 31.04C154.322 31.424 153.874 31.616 153.34 31.616ZM154.748 34.464V52H151.836V34.464H154.748ZM168.895 34.144C171.029 34.144 172.757 34.7947 174.079 36.096C175.402 37.376 176.063 39.232 176.063 41.664V52H173.183V42.08C173.183 40.3307 172.746 38.9973 171.871 38.08C170.997 37.1413 169.802 36.672 168.287 36.672C166.751 36.672 165.525 37.152 164.607 38.112C163.711 39.072 163.263 40.4693 163.263 42.304V52H160.351V34.464H163.263V36.96C163.839 36.064 164.618 35.3707 165.599 34.88C166.602 34.3893 167.701 34.144 168.895 34.144ZM188.692 34.176C190.207 34.176 191.53 34.5067 192.66 35.168C193.812 35.8293 194.666 36.6613 195.22 37.664V34.464H198.164V52.384C198.164 53.984 197.823 55.4027 197.14 56.64C196.458 57.8987 195.476 58.88 194.196 59.584C192.938 60.288 191.466 60.64 189.78 60.64C187.476 60.64 185.556 60.096 184.02 59.008C182.484 57.92 181.578 56.4373 181.3 54.56H184.18C184.5 55.6267 185.162 56.48 186.164 57.12C187.167 57.7813 188.372 58.112 189.78 58.112C191.38 58.112 192.682 57.6107 193.684 56.608C194.708 55.6053 195.22 54.1973 195.22 52.384V48.704C194.644 49.728 193.791 50.5813 192.66 51.264C191.53 51.9467 190.207 52.288 188.692 52.288C187.135 52.288 185.716 51.904 184.436 51.136C183.178 50.368 182.186 49.2907 181.46 47.904C180.735 46.5173 180.372 44.9387 180.372 43.168C180.372 41.376 180.735 39.808 181.46 38.464C182.186 37.0987 183.178 36.0427 184.436 35.296C185.716 34.5493 187.135 34.176 188.692 34.176ZM195.22 43.2C195.22 41.8773 194.954 40.7253 194.42 39.744C193.887 38.7627 193.162 38.016 192.244 37.504C191.348 36.9707 190.356 36.704 189.268 36.704C188.18 36.704 187.188 36.96 186.292 37.472C185.396 37.984 184.682 38.7307 184.148 39.712C183.615 40.6933 183.348 41.8453 183.348 43.168C183.348 44.512 183.615 45.6853 184.148 46.688C184.682 47.6693 185.396 48.4267 186.292 48.96C187.188 49.472 188.18 49.728 189.268 49.728C190.356 49.728 191.348 49.472 192.244 48.96C193.162 48.4267 193.887 47.6693 194.42 46.688C194.954 45.6853 195.22 44.5227 195.22 43.2ZM209.933 52.288C208.589 52.288 207.384 52.064 206.317 51.616C205.251 51.1467 204.408 50.5067 203.789 49.696C203.171 48.864 202.829 47.9147 202.765 46.848H205.773C205.859 47.7227 206.264 48.4373 206.989 48.992C207.736 49.5467 208.707 49.824 209.901 49.824C211.011 49.824 211.885 49.5787 212.525 49.088C213.165 48.5973 213.485 47.9787 213.485 47.232C213.485 46.464 213.144 45.8987 212.461 45.536C211.779 45.152 210.723 44.7787 209.293 44.416C207.992 44.0747 206.925 43.7333 206.093 43.392C205.283 43.0293 204.579 42.5067 203.981 41.824C203.405 41.12 203.117 40.2027 203.117 39.072C203.117 38.176 203.384 37.3547 203.917 36.608C204.451 35.8613 205.208 35.2747 206.189 34.848C207.171 34.4 208.291 34.176 209.549 34.176C211.491 34.176 213.059 34.6667 214.253 35.648C215.448 36.6293 216.088 37.9733 216.173 39.68H213.261C213.197 38.7627 212.824 38.0267 212.141 37.472C211.48 36.9173 210.584 36.64 209.453 36.64C208.408 36.64 207.576 36.864 206.957 37.312C206.339 37.76 206.029 38.3467 206.029 39.072C206.029 39.648 206.211 40.128 206.573 40.512C206.957 40.8747 207.427 41.1733 207.981 41.408C208.557 41.6213 209.347 41.8667 210.349 42.144C211.608 42.4853 212.632 42.8267 213.421 43.168C214.211 43.488 214.883 43.9787 215.437 44.64C216.013 45.3013 216.312 46.1653 216.333 47.232C216.333 48.192 216.067 49.056 215.533 49.824C215 50.592 214.243 51.2 213.261 51.648C212.301 52.0747 211.192 52.288 209.933 52.288ZM222.78 38.464C222.225 38.464 221.756 38.272 221.372 37.888C220.988 37.504 220.796 37.0347 220.796 36.48C220.796 35.9253 220.988 35.456 221.372 35.072C221.756 34.688 222.225 34.496 222.78 34.496C223.313 34.496 223.761 34.688 224.124 35.072C224.508 35.456 224.7 35.9253 224.7 36.48C224.7 37.0347 224.508 37.504 224.124 37.888C223.761 38.272 223.313 38.464 222.78 38.464ZM224.892 47.968L221.308 56.576H219.356L221.692 47.968H224.892Z"
    fill="#699BF7" />
</svg>