<svg width="809" height="429" viewBox="0 0 809 429" fill="none" xmlns="http://www.w3.org/2000/svg">
<g clip-path="url(#clip0_980_1349)">
<path d="M625.257 411.131C619.465 418.654 612.653 424.232 614.135 426.755C614.135 426.755 617.217 429 625.744 429C640.341 429 654.707 427.889 652.344 426.408C649.077 424.371 639.623 423.607 630.587 420.505C628.362 419.741 635.476 415.413 633.529 414.695C629.521 413.237 626.37 411.964 625.257 411.131Z" fill="#002E4F"/>
<path d="M775.75 426.315C775.75 426.315 777.673 429 785.042 429C797.67 429 810.83 427.287 808.791 426.014C805.965 424.255 783.837 419.626 783.837 419.626L778.878 413.469L770.467 418.121L775.75 426.315Z" fill="#002E4F"/>
<path d="M735.735 240.378C726.675 240.378 719.817 238.573 719.261 238.411C714.534 237.114 711.753 232.254 713.051 227.532C714.325 222.81 719.191 220.032 723.918 221.305C724.219 221.398 744.169 226.49 755.8 216.514C763.586 209.824 766.552 197.256 764.605 179.109L763.98 173.322L781.914 163.161C786.177 160.754 791.599 162.235 794.009 166.494C796.418 170.753 794.935 176.146 790.672 178.576L782.748 183.067C783.999 204.431 778.809 220.217 767.27 230.031C757.515 238.341 745.374 240.378 735.735 240.378Z" fill="#00A4E2"/>
<path d="M766.436 191.237C766.088 204.13 762.682 213.435 756.171 219.013C743.404 229.962 721.531 224.383 721.16 224.291C715.97 222.902 710.641 225.957 709.228 231.119C707.814 236.304 710.873 241.651 716.063 243.063C716.689 243.225 724.219 246.974 734.159 246.627C771.881 245.285 794.657 212.764 795.075 193.83L766.436 191.237Z" fill="#E1F3F6"/>
<path d="M714.557 146.148C711.174 144.643 707.861 143 704.593 141.264C673.336 159.04 633.39 181.84 632.603 182.627C632.603 182.627 652.46 214.199 653.734 215.472C654.545 216.282 703.782 181.006 739.187 155.453C730.985 152.305 722.551 149.735 714.557 146.148Z" fill="#008DC4"/>
<path d="M715.067 145.222C723.246 148.833 731.865 151.449 740.184 154.713C759.693 140.639 774.754 129.691 774.754 129.691L741.435 120.34C741.435 120.34 725.401 129.436 705.636 140.663C708.718 142.283 711.869 143.811 715.067 145.222Z" fill="#00AFE2"/>
<path d="M657.604 103.767L677.229 156.842L715.576 170.892L667.011 82.2402L657.604 103.767Z" fill="#006091"/>
<path d="M717.685 183.946H689.255L714.557 228.087L753.113 244.313L717.685 183.946Z" fill="#006091"/>
<path d="M753.113 244.313L730.498 205.751L633.715 262.437L614.692 230.008L626.648 37.1967L670.139 11.7354L748.409 145.129L774.754 129.714L796.65 167.049L770.305 182.465L792.92 221.004L753.113 244.313ZM665.319 94.6929L662.863 96.128L656.213 199.107L708.579 168.438L665.319 94.6929Z" fill="#0076AD"/>
<path d="M582.508 221.189L614.669 230.008L633.715 262.437L599.7 253.849L582.508 221.189Z" fill="#008DC4"/>
<path d="M582.508 221.189L614.669 230.008L626.625 37.1964L597.105 30.1367L582.508 221.189Z" fill="#00AFE2"/>
<path d="M597.105 30.137L626.624 37.1967L670.116 11.7122L640.226 3.03223L597.105 30.137Z" fill="#00D2FD"/>
<path d="M661.821 298.013C661.821 298.013 666.548 348.958 666.548 366.805C666.548 366.805 629.405 395.715 620.322 410.853C624.238 413.815 631.954 417.773 637.005 417.611C661.798 393.979 688.977 377.105 688.977 377.105C688.977 377.105 700.701 343.102 704.362 314.308L661.821 298.013Z" fill="#002E4F"/>
<path d="M688.305 300.42C696.669 300.49 705.219 299.032 712.402 295.143C709.992 284.958 715.136 254.937 721.577 238.897C721.577 238.897 726.675 227.717 723.107 224.291C709.899 211.607 698.662 212.625 695.163 212.486C683.045 222.717 660.477 252.9 661.38 292.782C667.613 299.356 680.264 300.374 688.305 300.42Z" fill="#E1F3F6"/>
<path d="M770.236 419.51C775.078 418.167 779.712 415.945 782.678 411.987C768.336 388.748 715.739 303.406 712.889 296.717C712.819 296.555 712.749 296.346 712.68 296.161C704.964 300.327 695.742 301.786 686.798 301.438C679.013 301.138 667.752 300.05 661.404 294.286C661.427 294.703 661.427 295.096 661.45 295.513C662.539 317.803 736.522 392.081 765.648 420.482C767.247 420.25 768.799 419.903 770.236 419.51Z" fill="#00396A"/>
<path d="M617.519 277.32C615.456 277.32 613.487 277.019 611.61 276.394C607.694 275.098 602.527 271.788 600.071 263.571C598.681 258.872 601.346 253.942 606.049 252.553C610.753 251.164 615.688 253.849 617.078 258.525C617.241 259.081 617.403 259.428 617.495 259.613C618.445 259.659 621.944 259.335 630.494 254.335C638.14 249.845 647.177 243.179 655.912 236.721C670.672 225.819 684.621 215.495 696.136 211.861C700.794 210.38 705.775 212.972 707.258 217.625C708.741 222.3 706.146 227.277 701.489 228.735C692.8 231.49 679.407 241.373 666.455 250.933C647.525 264.983 630.795 277.32 617.519 277.32Z" fill="#00A4E2"/>
<path d="M634.109 270.701C633.02 265.493 631.884 259.729 628.571 255.447C621.434 259.405 618.376 259.66 617.495 259.637C617.38 259.428 617.241 259.081 617.078 258.549C615.688 253.85 610.753 251.188 606.049 252.577C601.346 253.966 598.681 258.896 600.071 263.595C602.504 271.835 607.694 275.122 611.61 276.418C613.487 277.043 615.456 277.344 617.519 277.344C622.663 277.344 628.339 275.492 634.456 272.39C634.34 271.812 634.225 271.256 634.109 270.701Z" fill="#00A4E2"/>
<path d="M707.258 217.648C705.775 212.996 700.794 210.403 696.136 211.885C684.621 215.519 670.672 225.819 655.912 236.744C647.177 243.202 638.14 249.868 630.494 254.359C630.146 254.567 629.822 254.752 629.475 254.938C632.788 259.312 638.534 280.885 638.627 281.394C648.034 276.487 693.124 242.184 702.902 231.837C706.308 228.249 708.741 222.324 707.258 217.648Z" fill="#E1F3F6"/>
<path d="M604.983 270.168C604.45 270.168 603.941 270.006 603.477 269.682C596.526 264.706 592.888 255.146 592.749 254.752C592.239 253.41 592.935 251.905 594.278 251.396C595.622 250.91 597.128 251.581 597.638 252.924C597.661 253.016 600.882 261.419 606.513 265.446C607.694 266.28 607.949 267.9 607.115 269.08C606.582 269.798 605.794 270.168 604.983 270.168Z" fill="#00A4E2"/>
<path d="M604.983 263.826C604.172 263.826 603.361 263.432 602.852 262.715C599.515 257.993 596.85 246.813 596.572 245.563C596.248 244.151 597.129 242.762 598.519 242.438C599.932 242.114 601.322 242.994 601.647 244.383C602.388 247.531 604.798 256.442 607.115 259.729C607.949 260.909 607.671 262.53 606.489 263.363C606.026 263.664 605.493 263.826 604.983 263.826Z" fill="#00A4E2"/>
<path d="M608.575 262.344C607.555 262.344 606.559 261.742 606.165 260.723C603.778 254.867 602.851 242.6 602.805 242.09C602.689 240.655 603.778 239.405 605.215 239.29C606.651 239.174 607.903 240.262 608.018 241.697C608.273 245.007 609.27 254.543 611.007 258.756C611.564 260.099 610.915 261.603 609.571 262.159C609.246 262.297 608.899 262.344 608.575 262.344Z" fill="#00A4E2"/>
<path d="M612.491 261.094C611.332 261.094 610.266 260.307 609.965 259.15C608.32 252.784 609.826 246.303 609.895 246.025C610.22 244.614 611.633 243.757 613.024 244.081C614.414 244.405 615.294 245.817 614.97 247.206C614.947 247.322 613.719 252.784 615.016 257.83C615.387 259.219 614.53 260.654 613.139 261.001C612.931 261.071 612.699 261.094 612.491 261.094Z" fill="#00A4E2"/>
<path d="M717.337 231.813C716.132 231.813 714.928 231.559 713.769 231.003C709.598 229.036 707.814 224.059 709.784 219.916C711.846 215.564 715.553 211.097 715.97 210.611C718.936 207.093 724.196 206.653 727.741 209.616C731.263 212.579 731.703 217.833 728.737 221.351C727.695 222.601 725.725 225.24 724.868 227.045C723.478 230.054 720.465 231.813 717.337 231.813Z" fill="#00A4E2"/>
<path d="M718.542 227.508C719.538 228.596 720.558 229.615 721.647 230.61C723.014 229.8 724.173 228.573 724.891 227.045C725.748 225.24 727.718 222.601 728.76 221.351C731.726 217.833 731.286 212.579 727.764 209.616C724.242 206.653 718.982 207.093 715.993 210.611C715.831 210.819 715.159 211.63 714.256 212.81C714.348 218.041 714.904 223.504 718.542 227.508Z" fill="#0086CF"/>
<path d="M745.953 218.32C742.64 226.375 733.418 230.194 725.354 226.884C717.291 223.574 713.468 214.362 716.781 206.306L720.952 196.191C724.265 188.136 733.51 184.317 741.551 187.627C749.614 190.937 753.437 200.149 750.124 208.205L745.953 218.32Z" fill="#00A4E2"/>
<path d="M718.542 205.125C717.268 210.542 709.459 208.806 706.54 205.982C702.508 202.093 700.098 191.075 709.042 191.654C702.601 181.956 724.428 171.447 726.721 182.65C728.436 179.757 730.174 177.164 733.974 176.91C736.708 176.724 741.481 178.854 741.087 182.187C745.142 178.993 751.05 179.224 755.059 182.465C756.333 183.506 758.65 185.798 757.492 187.488C756.866 188.414 753.576 188.691 752.464 189.038C754.364 188.182 762.126 189.918 760.597 193.135C759.878 194.64 756.078 193.297 754.966 192.973V193.321C759.114 195.589 760.828 197.904 760.342 203.065C760.11 205.449 758.998 209.917 756.171 210.264C754.711 210.426 753.043 209.523 753.066 208.019C756.542 211.468 751.63 220.726 747.251 216.166C745.536 214.384 746.37 211.375 747.992 209.824C745.397 208.343 739.79 200.473 743.775 198.367C741.898 198.413 733.255 195.473 736.013 192.997C736.731 195.89 733.163 199.616 730.313 198.135C732.074 201.977 726.884 204.848 723.686 204.987C725.632 207.44 719.608 210.357 717.778 206.792L718.542 205.125Z" fill="#00396A"/>
<path d="M422.098 173.669C422.098 173.669 417.024 154.296 442.164 149.689L440.24 172.975L422.098 173.669Z" fill="#0089E0"/>
<path d="M321.422 222.578C315.931 222.578 310.81 221.467 306.083 219.245C283.26 208.482 280.735 176.099 280.619 174.734C280.271 169.85 283.955 165.614 288.844 165.267C293.71 164.92 297.95 168.6 298.298 173.461C298.784 179.965 302.515 197.996 313.683 203.227C322.905 207.556 337.178 203.158 355.019 190.497C359.005 187.673 364.542 188.599 367.392 192.58C370.219 196.561 369.292 202.093 365.284 204.94C348.763 216.676 334.073 222.578 321.422 222.578Z" fill="#CDE5E8"/>
<path d="M368.597 239.197C371.053 232.739 373.347 226.166 376.012 219.777C374.228 219.638 372.397 219.407 370.567 219.06C361.971 217.416 354.672 213.921 348.717 208.574C342.739 203.227 338.151 196.445 334.884 188.251C331.64 180.058 329.74 170.729 329.207 160.267C328.674 149.828 329.509 138.787 331.733 127.167C334.004 115.316 337.294 104.692 341.627 95.2945C345.96 85.897 351.15 77.9808 357.197 71.5461C363.245 65.1113 370.034 60.5051 377.541 57.7275C385.048 54.9499 393.112 54.3713 401.731 56.0147C408.543 57.3109 414.545 59.8802 419.758 63.6762C422.26 58.6765 424.971 53.7463 427.543 48.8392C430.579 43.0294 433.405 37.127 436.116 31.1552C437.275 28.609 438.271 25.9703 439.314 23.3779C430.602 18.4014 420.824 14.8831 410.003 12.823C394.664 9.90653 380.206 10.4389 366.674 14.4896C353.119 18.5171 340.932 25.2759 330.088 34.766C319.244 44.2562 310.022 56.1535 302.469 70.4813C294.915 84.8091 289.447 100.803 286.064 118.441C282.681 136.102 281.87 152.976 283.608 169.063C285.345 185.15 289.516 199.616 296.097 212.417C302.677 225.24 311.528 236.003 322.627 244.729C332.961 252.877 345.149 258.478 359.167 261.58C362.503 254.196 365.724 246.766 368.597 239.197Z" fill="#00AFE2"/>
<path d="M488.69 106.012C486.952 89.9247 482.782 75.458 476.201 62.6579C469.621 49.8347 460.77 39.0715 449.671 30.3452C446.682 27.9843 443.531 25.8548 440.241 23.9336C439.198 26.526 438.202 29.1647 437.043 31.6877C434.286 37.6364 431.528 43.562 428.47 49.3718C425.875 54.302 423.141 59.2554 420.615 64.3014C421.519 64.9958 422.399 65.6901 423.233 66.454C429.188 71.8009 433.869 78.5828 437.228 86.823C440.588 95.0401 442.558 104.322 443.114 114.668C443.67 125.015 442.813 136.102 440.542 147.93C438.317 159.55 435.027 170.105 430.694 179.641C426.338 189.154 421.079 197.117 414.915 203.528C408.752 209.94 401.916 214.523 394.386 217.301C388.848 219.338 383.079 220.194 377.078 219.87C374.135 226.86 371.633 234.059 368.945 241.142C366.28 248.155 363.291 255.007 360.209 261.835C360.905 261.974 361.6 262.136 362.295 262.252C377.634 265.191 392.069 264.636 405.624 260.585C419.155 256.557 431.366 249.799 442.21 240.308C453.054 230.818 462.253 218.921 469.829 204.593C477.383 190.265 482.851 174.294 486.234 156.633C489.617 138.996 490.428 122.099 488.69 106.012Z" fill="#006091"/>
<path d="M389.405 271.441C374.066 268.501 360.835 262.668 349.737 253.942C338.638 245.216 329.787 234.429 323.206 221.629C316.626 208.806 312.455 194.362 310.717 178.275C308.98 162.189 309.79 145.315 313.173 127.654C316.556 110.016 322.001 94.0217 329.578 79.6939C337.132 65.3661 346.33 53.4688 357.197 43.9786C368.041 34.4885 380.229 27.7297 393.784 23.7022C407.315 19.6747 421.774 19.1191 437.113 22.0356C452.452 24.9521 465.682 30.8082 476.781 39.5345C487.879 48.2839 496.731 59.0471 503.311 71.8472C509.891 84.6705 514.062 99.114 515.8 115.224C517.538 131.334 516.727 148.208 513.344 165.846C509.961 183.507 504.493 199.478 496.939 213.806C489.385 228.133 480.187 240.031 469.32 249.521C458.476 259.011 446.265 265.77 432.733 269.797C419.202 273.825 404.767 274.38 389.405 271.441ZM397.676 228.249C406.041 229.846 413.988 229.268 421.519 226.467C429.026 223.689 435.885 219.106 442.048 212.695C448.211 206.283 453.471 198.32 457.827 188.807C462.183 179.294 465.473 168.716 467.675 157.096C469.945 145.245 470.803 134.158 470.247 123.835C469.69 113.511 467.721 104.206 464.361 95.9892C461.002 87.7721 456.321 80.967 450.366 75.6201C444.388 70.2732 437.229 66.8012 428.864 65.2041C420.268 63.5607 412.204 64.1394 404.674 66.917C397.143 69.6946 390.378 74.3008 384.33 80.7355C378.283 87.1703 373.092 95.0864 368.76 104.484C364.427 113.882 361.136 124.506 358.866 136.357C356.641 147.977 355.807 158.994 356.34 169.457C356.873 179.919 358.75 189.224 362.017 197.441C365.261 205.635 369.872 212.417 375.85 217.764C381.781 223.111 389.08 226.606 397.676 228.249Z" fill="#0076AD"/>
<path d="M545.852 141.356L546.524 173.923C546.524 173.923 537.209 182.256 528.868 173.923L531.95 137.259L545.852 141.356Z" fill="#00396A"/>
<path d="M507.458 401.154C506.925 400.737 503.288 399.047 502.801 398.631C500.855 401.547 499.488 403.168 497.148 405.575C502.894 410.575 501.411 416.662 501.411 416.662C501.411 416.662 497.356 420.157 495.757 420.944C490.683 423.444 481.322 426.916 481.322 426.916L504.886 428.768L522.357 410.899C516.147 407.403 511.397 404.255 507.458 401.154Z" fill="#002E4F"/>
<path d="M415.147 402.427C411.393 401.779 406.666 404.649 403.608 402.427C402.89 408.977 403.029 412.542 403.029 412.542L368.18 426.893H412.691C413.085 422.148 412.251 417.611 412.876 413.213C413.201 410.968 414.753 404.603 415.147 402.427Z" fill="#002E4F"/>
<path d="M455.719 244.382L416.329 319.146C416.329 319.146 432.293 332.64 448.003 337.13L477.522 249.057L455.719 244.382Z" fill="#CDE5E8"/>
<path d="M498.839 407.427C501.202 405.019 503.149 402.126 505.095 399.21C494.9 390.483 489.918 381.502 476.086 366.04C470.362 359.629 485.539 322.988 489.223 316.831C495.85 305.79 496.87 297.781 502.037 278.87L463.574 293.221C454.421 325.974 443.763 358.749 454.444 374.373C465.752 390.9 485.794 404.209 495.479 410.852C495.85 411.107 498.538 407.195 498.839 407.427Z" fill="#002E4F"/>
<path d="M434.077 169.827C433.544 169.827 433.011 169.665 432.548 169.341C431.389 168.507 431.111 166.864 431.946 165.707C435.05 161.401 435.722 157.837 435.722 157.814C435.977 156.402 437.321 155.453 438.758 155.707C440.171 155.962 441.121 157.304 440.866 158.716C440.843 158.902 440.032 163.392 436.186 168.739C435.699 169.433 434.888 169.827 434.077 169.827Z" fill="#00A4E2"/>
<path d="M499.302 286.787C510.749 255.377 520.527 206.098 524.188 186.446C522.149 185.59 520.133 184.965 518.534 184.525C515.128 183.599 511.073 182.488 507.574 183.576C505.813 184.131 504.238 185.034 502.685 186.006C501.249 190.265 500.669 193.876 500.669 193.876C500.669 193.876 476.086 240.841 460.052 272.876C473.676 275.885 486.999 280.352 499.302 286.787Z" fill="#F6EE9E"/>
<path d="M459.611 273.801C458.175 276.625 456.831 279.356 455.58 281.902C452.428 287.48 449.022 292.642 445.732 297.596C414.081 345.255 402.148 383.238 400.017 401.223C403.029 403.584 414.475 404.903 418.275 405.575C424.114 375.762 439.314 356.758 466.516 334.283C475.622 326.76 482.434 317.201 488.435 309.261C492.004 304.54 495.549 296.947 498.955 287.758C486.605 281.3 473.259 276.833 459.611 273.801Z" fill="#00396A"/>
<path d="M428.91 286.902C425.226 286.902 421.797 284.611 420.522 280.953C418.924 276.324 421.38 271.278 425.991 269.681C436.742 265.954 453.239 251.256 464.384 235.493C486.952 203.505 502.801 185.774 503.473 185.034C506.74 181.4 512.347 181.099 515.985 184.362C519.623 187.626 519.924 193.228 516.657 196.862C516.495 197.047 500.785 214.638 478.866 245.701C467.883 261.256 448.466 280.629 431.806 286.416C430.856 286.763 429.883 286.902 428.91 286.902Z" fill="#00A4E2"/>
<path d="M517.955 189.385C517.746 189.385 517.538 189.385 517.329 189.362C512.741 189.015 509.289 185.033 509.613 180.427C509.961 175.636 511.838 170.127 512.046 169.525C513.552 165.174 518.302 162.859 522.658 164.363C527.014 165.868 529.332 170.613 527.825 174.965C527.293 176.492 526.412 179.663 526.273 181.654C525.949 186.029 522.288 189.385 517.955 189.385Z" fill="#00A4E2"/>
<path d="M520.411 180.59C521.894 182.28 523.492 183.784 525.207 185.173C525.81 184.131 526.18 182.928 526.296 181.655C526.435 179.664 527.339 176.493 527.849 174.965C529.355 170.614 527.038 165.869 522.682 164.364C519.067 163.114 515.197 164.503 513.112 167.489C513.877 172.188 517.723 177.512 520.411 180.59Z" fill="#0086CF"/>
<path d="M541.913 162.535C541.728 171.239 534.498 178.136 525.786 177.928C517.074 177.72 510.169 170.521 510.378 161.818L510.633 150.87C510.818 142.166 518.047 135.269 526.759 135.454C535.472 135.639 542.376 142.861 542.191 151.564L541.913 162.535Z" fill="#00A4E2"/>
<path d="M416.398 284.472C412.76 284.472 408.59 283.5 403.932 281.532C402.612 280.977 401.986 279.449 402.542 278.13C403.098 276.81 404.628 276.185 405.948 276.741C412.807 279.634 418.275 280.028 421.751 277.945C422.979 277.204 424.577 277.597 425.342 278.824C426.084 280.051 425.69 281.648 424.462 282.389C422.145 283.778 419.457 284.472 416.398 284.472Z" fill="#00A4E2"/>
<path d="M419.503 288.245C415.355 288.245 412.019 287.435 408.242 286.532L407.06 286.254C405.67 285.93 404.79 284.518 405.137 283.106C405.462 281.718 406.875 280.838 408.288 281.185L409.47 281.463C415.796 282.991 419.966 284.009 429.235 281.625C430.648 281.278 432.061 282.111 432.409 283.5C432.78 284.889 431.922 286.324 430.532 286.671C426.06 287.828 422.561 288.245 419.503 288.245Z" fill="#00A4E2"/>
<path d="M416.213 279.333C408.034 279.333 402.426 274.31 402.125 274.033C401.059 273.06 400.99 271.417 401.963 270.352C402.936 269.287 404.581 269.218 405.647 270.19C405.902 270.422 411.903 275.699 419.966 273.639C421.38 273.269 422.793 274.125 423.141 275.514C423.511 276.903 422.654 278.338 421.264 278.685C419.503 279.148 417.812 279.333 416.213 279.333Z" fill="#00A4E2"/>
<path d="M421.681 276.532C421.588 276.532 421.472 276.532 421.38 276.509C412.505 275.467 408.891 269.079 408.729 268.801C408.034 267.551 408.497 265.954 409.771 265.26C411.023 264.565 412.598 265.028 413.293 266.278C413.409 266.487 415.888 270.607 421.982 271.324C423.419 271.486 424.438 272.782 424.276 274.218C424.114 275.56 422.979 276.532 421.681 276.532Z" fill="#00A4E2"/>
<path d="M452.845 173.576C452.706 173.576 452.567 173.576 452.428 173.53C448.119 172.812 436.302 170.961 433.567 170.961C432.131 170.961 430.949 169.803 430.949 168.345C430.949 166.91 432.108 165.729 433.567 165.729C437.228 165.729 451.664 168.09 453.286 168.368C454.699 168.6 455.672 169.942 455.44 171.354C455.209 172.673 454.097 173.576 452.845 173.576Z" fill="#00A4E2"/>
<path d="M451.177 179.039C450.945 179.039 450.714 179.016 450.482 178.947C450.366 178.924 437.947 175.544 432.177 175.22C430.741 175.127 429.652 173.901 429.721 172.466C429.814 171.031 431.042 169.896 432.478 170.012C438.804 170.382 451.316 173.785 451.849 173.924C453.239 174.294 454.05 175.729 453.68 177.118C453.378 178.299 452.312 179.039 451.177 179.039Z" fill="#00A4E2"/>
<path d="M449.926 184.779C449.648 184.779 449.393 184.733 449.115 184.664C437.368 180.868 434.471 180.636 432.919 180.521C432.247 180.474 431.621 180.405 430.741 180.196C429.351 179.826 428.516 178.414 428.887 177.002C429.258 175.613 430.694 174.78 432.085 175.15C432.502 175.266 432.803 175.289 433.336 175.336C435.236 175.498 438.387 175.752 450.714 179.71C452.081 180.15 452.845 181.632 452.405 182.997C452.035 184.085 451.015 184.779 449.926 184.779Z" fill="#00A4E2"/>
<path d="M444.759 188.946C444.689 188.946 444.643 188.946 444.574 188.946C432.803 188.112 432.316 181.724 432.316 181.006L437.53 180.891C437.53 180.891 437.53 180.821 437.507 180.729C437.507 180.752 438.04 183.275 444.944 183.761C446.381 183.853 447.47 185.103 447.354 186.538C447.261 187.904 446.126 188.946 444.759 188.946Z" fill="#00A4E2"/>
<path d="M434.911 185.821C434.911 185.821 432.641 184.779 429.119 184.779C426.153 184.779 422.121 179.757 422.121 174.525C422.121 174.525 420.685 159.133 436.927 166.1L434.911 185.821Z" fill="#00A4E2"/>
<path d="M486.095 231.559L463.295 343.658C463.295 343.658 498.584 352.153 520.249 339.7L525.717 183.946C525.74 183.946 501.504 175.475 486.095 231.559Z" fill="#CDE5E8"/>
<path d="M491.378 293.221L513.205 292.041C513.205 292.041 513.738 325.395 500.693 324.099C500.693 324.099 482.851 327.988 491.378 293.221Z" fill="#E1F3F6"/>
<path d="M518.789 181.284C516.402 179.132 513.297 177.951 510.077 177.951C506.369 177.951 502.824 179.525 500.368 182.28C499.696 183.02 483.755 200.843 460.978 233.11C459.495 235.216 457.85 237.369 456.089 239.521L453.772 242.368L456.298 245.03C458.986 247.877 461.812 250.632 464.523 253.317C466.006 254.775 467.489 256.21 468.949 257.691L472.17 260.909L475.089 257.414C477.707 254.289 480.117 251.187 482.272 248.155C504.052 217.3 519.623 199.871 519.762 199.709C524.581 194.316 524.141 186.076 518.789 181.284Z" fill="#E1F3F6"/>
<path d="M458.898 232.308L450.087 242.105L473.029 262.695L481.839 252.897L458.898 232.308Z" fill="#F8FDFF"/>
<path d="M494.529 168.785L514.572 176.632C514.572 176.632 523.099 135.176 516.866 128.973C516.889 128.973 494.529 126.866 494.529 168.785Z" fill="#00396A"/>
<path d="M518.047 136.194C518.766 137.259 534.313 147.629 546.524 144.759C546.524 144.759 544.439 126.427 515.916 129.088L518.047 136.194Z" fill="#00396A"/>
<path d="M530.05 155.73C530.05 160.545 526.134 164.434 521.338 164.434C516.518 164.434 512.625 160.545 512.625 155.73C512.625 150.916 516.518 147.027 521.338 147.027C526.134 147.027 530.05 150.939 530.05 155.73Z" stroke="#DDDD67" stroke-width="0.8679" stroke-miterlimit="10"/>
<path d="M549.745 157.443C549.745 161.633 546.362 165.012 542.168 165.012C537.974 165.012 534.591 161.609 534.591 157.443C534.591 153.253 537.997 149.874 542.168 149.874C546.339 149.874 549.745 153.253 549.745 157.443Z" stroke="#DDDD67" stroke-width="0.755" stroke-miterlimit="10"/>
<path d="M530.05 155.73C530.05 155.73 532.946 154.596 534.661 156.332" stroke="#DDDD67" stroke-width="0.8679" stroke-miterlimit="10"/>
<path d="M276.355 170.984C276.147 170.984 275.938 170.984 275.73 170.96C271.142 170.636 267.689 166.632 268.014 162.026C268.361 157.235 270.238 151.726 270.447 151.124C271.953 146.772 276.703 144.458 281.059 145.962C285.415 147.467 287.732 152.212 286.226 156.563C285.693 158.091 284.812 161.262 284.673 163.253C284.349 167.651 280.688 170.984 276.355 170.984Z" fill="#0086CF"/>
<path d="M271.397 402.381C285.23 408.746 296.56 408.631 297.487 408.746C306.5 392.729 333.656 349.329 308.956 313.729L274.015 294.98C274.015 294.98 308.933 331.39 271.397 402.381Z" fill="#002E4F"/>
<path d="M289.493 416.547C289.493 416.547 292.714 409.996 295.239 405.622C293.339 405.39 284.882 405.043 281.406 403.724C278.139 410.39 271.026 420.135 266.021 426.824H312.965L289.493 416.547Z" fill="#002E4F"/>
<path d="M347.558 315.813C341.719 304.494 299.317 270.399 295.471 250.817C295.123 249.081 294.845 247.299 294.59 245.493C287.778 249.081 278.95 250.076 271.93 250.423C263.982 250.817 259.232 251.326 251.54 247.576C252.188 259.728 250.219 271.464 257.309 283.778C271.397 308.197 318.178 329.122 323.415 337.177C333.702 353.102 337.271 387.66 340.769 408.746C346.284 408.746 359.352 408.515 364.705 406.594C362.897 395.784 365.84 351.273 347.558 315.813Z" fill="#00396A"/>
<path d="M362.179 414.648C362.179 414.648 360.65 408.491 360.21 405.598C354.834 407.473 351.706 405.575 346.191 405.598C347.026 410.829 346.4 420.597 346.887 426.337H391.397L362.179 414.648Z" fill="#002E4F"/>
<path d="M272.254 256.811C279.043 256.51 293.27 254.612 298.993 248.918C297.834 239.613 293.664 224.661 295.123 212.624C300.082 171.817 280.155 159.595 280.155 159.595C280.155 159.595 270.98 153.184 263.542 160.845C252.327 172.396 241.368 205.032 242.48 253.293C250.196 257.274 264.121 257.182 272.254 256.811Z" fill="#CDE5E8"/>
<path d="M374.552 269.705C373.88 269.705 373.208 269.635 372.536 269.473C340.399 262.02 313.173 242.785 293.826 213.828C279.321 192.14 274.316 172.674 274.108 171.864C272.903 167.119 275.799 162.304 280.549 161.1C285.299 159.897 290.119 162.767 291.3 167.512C291.393 167.859 296.004 185.381 308.91 204.477C325.917 229.684 348.694 245.725 376.545 252.206C381.318 253.317 384.284 258.062 383.172 262.83C382.222 266.927 378.584 269.705 374.552 269.705Z" fill="#00A4E2"/>
<path d="M354.996 243.086C337.294 234.706 322.21 221.42 310.184 203.62C297.44 184.756 292.83 167.303 292.806 167.141C291.625 162.512 287.477 159.271 282.704 159.271C281.847 159.271 280.989 159.387 280.155 159.596C277.444 160.267 275.174 161.957 273.76 164.364C272.324 166.748 271.93 169.549 272.602 172.257L272.648 172.442C274.015 178.414 279.506 199.385 292.551 218.874C308.168 242.229 329.346 259.682 353.791 269.403C353.977 269.473 354.185 269.519 354.371 269.519C354.672 269.519 354.996 269.426 355.251 269.241C355.668 268.94 355.946 268.477 355.946 267.945V244.497C355.9 243.896 355.552 243.34 354.996 243.086Z" fill="#E1F3F6"/>
<path d="M381.133 270.329C378.283 270.329 375.27 270.005 372.096 269.38C370.683 269.102 369.779 267.737 370.057 266.325C370.335 264.913 371.702 263.987 373.139 264.288C380.901 265.839 387.389 265.283 392.393 262.598C393.668 261.927 395.243 262.413 395.915 263.663C396.587 264.936 396.101 266.51 394.85 267.181C390.887 269.288 386.3 270.329 381.133 270.329Z" fill="#00A4E2"/>
<path d="M381.503 264.496C380.252 264.496 378.978 264.403 377.68 264.218C376.243 264.01 375.27 262.69 375.479 261.255C375.687 259.82 377.008 258.848 378.445 259.056C386.786 260.283 394.502 255.955 394.595 255.908C395.846 255.191 397.444 255.631 398.163 256.88C398.881 258.13 398.441 259.704 397.213 260.445C396.842 260.63 390.007 264.496 381.503 264.496Z" fill="#00A4E2"/>
<path d="M379.186 259.381C378.792 259.381 378.375 259.358 377.935 259.335C376.498 259.242 375.409 258.015 375.502 256.58C375.595 255.145 376.823 254.057 378.259 254.15C384.423 254.52 387.667 250.794 387.69 250.747C388.593 249.636 390.239 249.451 391.351 250.377C392.463 251.28 392.648 252.923 391.721 254.034C391.559 254.242 387.296 259.381 379.186 259.381Z" fill="#00A4E2"/>
<path d="M370.173 254.983C368.736 254.983 367.555 253.825 367.555 252.367C367.555 250.932 368.713 249.775 370.15 249.752C370.381 249.752 375.525 249.636 378.468 245.4C379.279 244.22 380.924 243.919 382.106 244.752C383.287 245.562 383.589 247.182 382.755 248.386C378.236 254.913 370.497 254.983 370.173 254.983Z" fill="#00A4E2"/>
<path d="M361.646 196.167C360.835 196.167 360.024 195.797 359.515 195.079C355.668 189.733 354.857 185.242 354.834 185.034C354.579 183.622 355.552 182.279 356.966 182.025C358.379 181.77 359.723 182.719 359.978 184.154C359.978 184.177 360.673 187.719 363.755 192.024C364.589 193.205 364.334 194.825 363.152 195.658C362.689 196.005 362.156 196.167 361.646 196.167Z" fill="#00A4E2"/>
<path d="M362.179 197.325C362.017 197.325 361.855 197.302 361.692 197.279C355.993 196.191 344.662 196.168 344.546 196.168C343.11 196.168 341.928 195.01 341.928 193.552C341.928 192.094 343.086 190.937 344.546 190.937C345.033 190.937 356.479 190.96 362.666 192.14C364.079 192.418 365.006 193.784 364.728 195.196C364.496 196.469 363.407 197.325 362.179 197.325Z" fill="#00A4E2"/>
<path d="M343.11 202.741C341.812 202.741 340.7 201.769 340.514 200.45C340.329 199.014 341.349 197.718 342.785 197.533C344.43 197.325 359.097 195.542 363.824 196.376C365.237 196.63 366.187 197.973 365.933 199.385C365.678 200.797 364.334 201.746 362.92 201.491C359.931 200.959 349.389 201.954 343.434 202.672C343.341 202.741 343.225 202.741 343.11 202.741Z" fill="#00A4E2"/>
<path d="M346.516 208.643C345.288 208.643 344.199 207.787 343.967 206.537C343.689 205.125 344.616 203.759 346.029 203.482C352.355 202.255 354.023 201.723 357.082 200.75C358.518 200.288 360.302 199.709 362.967 198.945C364.357 198.551 365.794 199.338 366.188 200.727C366.581 202.116 365.794 203.551 364.403 203.945C361.808 204.685 360.14 205.241 358.68 205.704C355.529 206.722 353.629 207.324 347.002 208.597C346.84 208.62 346.678 208.643 346.516 208.643Z" fill="#00A4E2"/>
<path d="M352.123 212.786C350.872 212.786 349.783 211.883 349.551 210.61C349.319 209.198 350.269 207.833 351.683 207.601C360.14 206.143 361.808 203.018 361.832 202.972C362.295 201.606 363.755 200.866 365.122 201.305C366.489 201.768 367.23 203.227 366.79 204.592C366.466 205.611 364.195 210.726 352.586 212.717C352.424 212.763 352.262 212.786 352.123 212.786Z" fill="#00A4E2"/>
<path d="M362.179 209.639L360.186 188.413C360.186 188.413 369.501 189.084 369.501 198.852C369.478 202.116 368.551 205.75 362.179 209.639Z" fill="#00A4E2"/>
<path d="M303.488 140.477C305.851 149.365 300.545 158.485 291.625 160.822C282.727 163.183 273.598 157.883 271.235 148.995L268.269 137.815C265.905 128.926 271.211 119.807 280.132 117.469C289.03 115.108 298.159 120.408 300.522 129.297L303.488 140.477Z" fill="#00A4E2"/>
<path d="M301.912 134.551C300.638 138.069 298.854 141.564 296.097 143.948C289.377 149.735 279.089 151.286 270.933 147.814L271.235 148.971C273.598 157.859 282.704 163.16 291.625 160.799C300.522 158.438 305.828 149.341 303.488 140.453L301.912 134.551Z" fill="#00396A"/>
<path d="M271.212 148.37C264.955 144.365 258.19 129.088 268.083 125.755C274.2 123.695 271.744 142.537 271.744 147.86L271.212 148.37Z" fill="#00396A"/>
<path d="M266.183 127.005C258.607 121.519 267.991 106.034 286.689 106.034C298.251 106.034 298.159 114.876 290.165 119.644C283.538 123.602 273.25 121.288 268.269 128.047L266.183 127.005Z" fill="#00396A"/>
<path d="M301.912 137.977C299.271 133.972 294.034 125.825 292.019 121.265C290.721 118.348 288.96 113.395 294.799 116.913C299.688 119.853 302.329 130.246 301.866 135.523L301.912 137.977Z" fill="#00396A"/>
<path d="M169.794 175.035C166.921 177.697 163.746 180.174 161.151 183.137L123.499 261.696L151.535 225.564L181.31 164.087C177.486 167.767 173.686 171.448 169.794 175.035Z" fill="#006091"/>
<path d="M147.457 162.119C150.192 158.392 152.81 153.994 155.915 150.152L90.0408 118.024L27.5266 124.274L137.077 174.734C140.645 170.637 144.26 166.493 147.457 162.119Z" fill="#006091"/>
<path d="M156.865 150.615C153.366 154.99 150.516 160.152 147.156 164.225C144.144 167.906 141.109 171.563 138.004 175.174L187.797 198.112L205.87 174.526L156.865 150.615Z" fill="#00AFE2"/>
<path d="M81.8848 241.79L101.209 201.492L0 153.092L16.2426 119.182L182.885 21.1328L228.369 42.8907L161.522 182.349L189.072 195.52L170.373 234.545L142.823 221.374L123.499 261.673L81.8848 241.79ZM156.842 85.3648L154.27 84.138L65.1324 136.264L119.884 162.443L156.842 85.3648Z" fill="#0076AD"/>
<path d="M189.072 195.543L205.894 174.525L192.686 203.806L169.748 235.818L189.072 195.543Z" fill="#006091"/>
<path d="M182.607 162.906L248.319 19.0029L228.346 42.8671L161.522 182.349C163.376 180.567 181.541 163.97 182.607 162.906Z" fill="#006091"/>
<path d="M16.2427 119.182L45.9473 93.3504L208.767 0L182.885 21.1329L16.2427 119.182Z" fill="#009EE7"/>
<path d="M182.885 21.1329L228.369 42.8907L248.319 19.0265L208.767 0L182.885 21.1329Z" fill="#00D2FD"/>
<path d="M127.091 126.242C121.507 122.261 117.637 124.02 114.949 124.413C112.007 124.876 109.829 123.256 109.829 123.256C108.624 122.469 107.002 122.816 106.214 124.02C105.426 125.223 105.774 126.844 106.979 127.631C107.094 127.7 109.388 129.158 113.35 130.2C109.018 134.158 104.592 138.926 104.337 139.181C103.364 140.246 103.433 141.889 104.476 142.861C104.986 143.324 105.612 143.556 106.237 143.556C106.932 143.556 107.651 143.278 108.16 142.722C108.207 142.676 111.288 139.343 114.741 136.033C111.543 140.037 108.554 144.181 107.998 144.944C107.164 146.125 107.419 147.745 108.601 148.578C109.064 148.902 109.597 149.064 110.13 149.064C110.941 149.064 111.752 148.694 112.238 147.977C113.953 145.592 116.363 142.375 118.657 139.482C117.799 141.171 116.71 143.093 114.532 146.588C113.768 147.815 114.138 149.412 115.366 150.175C115.783 150.43 116.27 150.569 116.733 150.569C117.614 150.569 118.448 150.129 118.958 149.342C119.861 147.907 120.58 146.703 121.182 145.685C120.719 146.819 121.113 148.139 122.178 148.833C122.619 149.111 123.105 149.25 123.592 149.25C124.449 149.25 125.283 148.833 125.77 148.069C128.203 144.319 129.408 141.241 129.917 138.834L130.033 138.903C131.516 131.612 129.732 128.14 127.091 126.242ZM121.854 144.574C122.711 143.069 123.314 141.912 123.87 140.778C123.383 141.889 122.735 143.162 121.854 144.574Z" fill="#00A4E2"/>
<path d="M47.1985 155.8C38.9498 155.337 26.9706 171.47 39.2279 175.868C28.1292 175.613 25.4182 191.283 35.5901 195.612C17.7719 192.14 19.8573 215.217 28.2682 223.55C22.5682 222.647 16.7756 228.087 17.6561 234.035C18.5366 240.007 20.9 248.294 35.7059 252.738C50.5119 257.182 59.5716 248.872 66.9167 241.026C71.6435 250.655 94.9299 237.646 92.3579 226.119C101.163 229.244 109.041 219.268 109.203 211.305C109.365 203.528 103.92 197.603 98.7299 192.533C102.391 189.2 103.086 182.997 102.113 178.275C100.514 170.405 90.6665 169.618 90.6665 163.369C90.6665 161.17 91.0836 154.365 89.2067 151.379C86.2409 146.634 81.0507 141.912 74.5398 144.249C47.1985 131.264 47.1985 155.8 47.1985 155.8Z" fill="#00396A"/>
<path d="M63.1629 408.747C55.6325 407.427 54.4276 407.821 46.9899 405.992L29.7742 427.009H96.5285L57.7642 416.593L63.1629 408.747Z" fill="#002E4F"/>
<path d="M187.473 414.765L183.534 409.58C179.966 411.872 176.259 413.839 172.25 415.251L182.793 427.01H221.905L187.473 414.765Z" fill="#002E4F"/>
<path d="M39.9229 408.816C47.4069 410.644 54.891 412.542 62.4446 413.839L117.567 346.088L108.183 319.169L69.5812 274.704L80.703 337.709L39.9229 408.816Z" fill="#002E4F"/>
<path d="M114.903 256.025C99.7725 252.021 79.2665 257.09 64.5532 262.645C64.5532 262.645 73.5897 298.545 79.4982 309.262C96.7603 340.441 171.393 418.26 171.393 418.26C175.494 416.871 183.395 411.084 187.01 408.747L114.903 256.025Z" fill="#00396A"/>
<path d="M62.5374 276.672C77.1348 271.186 106.446 261.95 121.483 265.7C121.483 265.7 101.58 218.967 92.5432 208.667C86.4494 201.723 53.1301 182.141 53.1301 207.741C53.1301 242.808 62.5374 276.672 62.5374 276.672Z" fill="#CDE5E8"/>
<path d="M75.536 205.566C75.3506 205.635 75.1421 205.682 74.9336 205.751C70.4848 206.955 65.897 204.316 64.6922 199.872C63.441 195.219 63.3714 189.409 63.3714 188.784C63.3483 184.178 67.0787 180.429 71.6897 180.405C76.3006 180.382 80.0542 184.109 80.0774 188.692C80.0774 190.312 80.3091 193.599 80.8189 195.52C81.9774 199.779 79.614 204.131 75.536 205.566Z" fill="#00A4E2"/>
<path d="M81.0969 197.326C81.0737 196.724 80.9811 196.122 80.8189 195.52C80.3091 193.599 80.1006 190.312 80.0774 188.692C80.0542 184.086 76.3006 180.382 71.6897 180.405C67.0787 180.429 63.3483 184.178 63.3714 188.784C63.3714 188.877 63.3714 189.132 63.3714 189.479C67.519 194.108 74.2848 196.307 81.0969 197.326Z" fill="#0086CF"/>
<path d="M89.253 172.327C91.9408 180.613 87.3993 189.501 79.1274 192.186C70.8324 194.871 61.9349 190.335 59.2471 182.071L55.8642 171.655C53.1764 163.369 57.7178 154.48 65.9897 151.795C74.2848 149.11 83.1823 153.624 85.8701 161.911L89.253 172.327Z" fill="#00A4E2"/>
<path d="M182.19 163.971C181.866 163.693 181.472 163.531 181.078 163.438C181.449 163.022 181.866 162.582 182.329 162.073C183.302 161.008 183.233 159.364 182.167 158.392C182.028 158.277 181.889 158.161 181.75 158.091C182.468 157.05 182.352 155.615 181.402 154.712C180.661 154.018 179.618 153.855 178.738 154.18C179.919 152.976 180.661 152.143 180.753 152.05C181.703 150.962 181.611 149.319 180.522 148.37C179.433 147.421 177.788 147.513 176.838 148.601C176.768 148.671 171.115 155.059 165.276 158.369C162.75 154.55 159.344 153.207 159.158 153.138C157.815 152.629 156.355 153.3 155.822 154.619C155.312 155.939 155.961 157.443 157.282 157.999C157.398 158.045 159.39 158.878 160.943 161.262C160.734 161.841 160.479 162.698 160.34 163.67C121.993 215.541 71.0872 197.117 68.7933 196.237C64.2287 194.501 59.108 196.746 57.3471 201.306C55.5861 205.866 57.8336 211.005 62.3982 212.764C63.0238 212.995 75.4664 217.74 93.2383 217.74C96.8065 217.74 100.606 217.555 104.545 217.092C123.708 214.87 152.045 203.852 174.683 174.687C175.053 174.479 175.586 174.155 176.282 173.646C176.745 173.345 177.208 173.021 177.695 172.627L177.625 172.581C178.969 171.447 180.614 169.873 182.491 167.628C183.441 166.517 183.302 164.873 182.19 163.971Z" fill="#00A4E2"/>
<path d="M111.543 196.376L109.388 196.839C104.128 197.974 98.6602 198.552 93.1688 198.552C79.7067 198.552 70.3689 195.173 69.3494 194.779C68.1446 194.316 66.8934 194.085 65.619 194.085C61.2861 194.085 57.4629 196.701 55.8873 200.751C54.891 203.344 54.7056 206.306 56.0727 208.714C61.1702 217.741 75.1421 221.398 93.2614 221.398C97.1078 221.398 100.977 221.167 104.754 220.75C107.071 220.472 109.481 220.079 111.96 219.569L113.489 219.176C113.489 219.176 111.311 212.602 110.848 205.913C110.639 203.344 111.543 196.376 111.543 196.376Z" fill="#E1F3F6"/>
<path d="M55.5165 180.035C60.9848 176.563 62.8848 170.035 62.2823 163.531C67.0786 166.748 70.8786 164.781 73.8908 159.249C82.9968 171.979 96.8528 153.046 77.9456 146.171C62.8153 140.685 47.9861 155.638 51.8556 170.66L55.5165 180.035Z" fill="#00396A"/>
</g>
<defs>
<clipPath id="clip0_980_1349">
<rect width="809" height="429" fill="white"/>
</clipPath>
</defs>
</svg>
