<svg width="180" height="70" viewBox="0 0 180 70" fill="none" xmlns="http://www.w3.org/2000/svg">
<path d="M77.5539 55.2529C77.5042 54.7877 77.2947 54.4255 76.9254 54.1663C76.5596 53.907 76.0838 53.7774 75.4978 53.7774C75.0859 53.7774 74.7326 53.8396 74.4378 53.9639C74.1431 54.0882 73.9176 54.2568 73.7613 54.4699C73.6051 54.683 73.5252 54.9262 73.5216 55.1997C73.5216 55.4269 73.5731 55.624 73.6761 55.7909C73.7826 55.9578 73.9264 56.0999 74.1076 56.2171C74.2887 56.3307 74.4893 56.4266 74.7095 56.5047C74.9296 56.5828 75.1516 56.6485 75.3753 56.7018L76.398 56.9575C76.81 57.0534 77.2059 57.183 77.5859 57.3463C77.9694 57.5097 78.3121 57.7156 78.6139 57.9642C78.9193 58.2128 79.1608 58.5129 79.3384 58.8644C79.5159 59.216 79.6047 59.6279 79.6047 60.1002C79.6047 60.7394 79.4414 61.3023 79.1147 61.7888C78.788 62.2718 78.3157 62.6499 77.6978 62.9234C77.0834 63.1933 76.3394 63.3282 75.4659 63.3282C74.6171 63.3282 73.8803 63.1968 73.2553 62.934C72.6338 62.6713 72.1473 62.2877 71.7958 61.7835C71.4478 61.2792 71.2595 60.6649 71.2311 59.9404H73.1754C73.2038 60.3204 73.321 60.6365 73.5269 60.8886C73.7329 61.1407 74.001 61.3289 74.3313 61.4532C74.6651 61.5775 75.038 61.6396 75.4499 61.6396C75.8796 61.6396 76.256 61.5757 76.5791 61.4479C76.9059 61.3165 77.1615 61.1354 77.3462 60.9046C77.5309 60.6702 77.625 60.3968 77.6285 60.0843C77.625 59.8002 77.5415 59.5658 77.3782 59.3811C77.2148 59.1929 76.9858 59.0367 76.691 58.9124C76.3998 58.7845 76.0589 58.6709 75.6683 58.5715L74.4272 58.2519C73.5287 58.021 72.8185 57.6713 72.2965 57.2025C71.778 56.7302 71.5188 56.1034 71.5188 55.3222C71.5188 54.6794 71.6928 54.1166 72.0408 53.6336C72.3924 53.1507 72.87 52.776 73.4737 52.5097C74.0774 52.2398 74.761 52.1048 75.5245 52.1048C76.2986 52.1048 76.9769 52.2398 77.5593 52.5097C78.1452 52.776 78.6051 53.1471 78.9389 53.623C79.2727 54.0953 79.4449 54.6386 79.4556 55.2529H77.5539ZM84.8502 63.3229C84.0334 63.3229 83.3321 63.1436 82.7461 62.7849C82.1638 62.4262 81.7145 61.9308 81.3985 61.2987C81.086 60.6631 80.9297 59.9316 80.9297 59.1041C80.9297 58.2732 81.0895 57.5399 81.4091 56.9042C81.7287 56.265 82.1797 55.7678 82.7621 55.4127C83.3481 55.0541 84.0405 54.8747 84.8395 54.8747C85.5036 54.8747 86.0913 54.9972 86.6027 55.2423C87.1176 55.4838 87.5277 55.8264 87.8331 56.2703C88.1385 56.7107 88.3125 57.2256 88.3552 57.8151H86.5121C86.4375 57.4209 86.26 57.0924 85.9794 56.8296C85.7025 56.5633 85.3314 56.4301 84.8662 56.4301C84.472 56.4301 84.1258 56.5367 83.8275 56.7497C83.5292 56.9593 83.2966 57.2611 83.1297 57.6553C82.9663 58.0494 82.8846 58.5218 82.8846 59.0722C82.8846 59.6297 82.9663 60.1091 83.1297 60.5104C83.293 60.9081 83.5221 61.2153 83.8168 61.4319C84.1151 61.645 84.4649 61.7515 84.8662 61.7515C85.1503 61.7515 85.4042 61.6982 85.6279 61.5917C85.8552 61.4816 86.0451 61.3236 86.1978 61.1176C86.3505 60.9117 86.4553 60.6613 86.5121 60.3666H88.3552C88.309 60.9454 88.1385 61.4585 87.8438 61.906C87.5491 62.3499 87.1478 62.6979 86.64 62.95C86.1321 63.1986 85.5356 63.3229 84.8502 63.3229ZM91.8668 58.3691V63.1631H89.9385V52.254H91.8242V56.3715H91.9201C92.1118 55.9099 92.4083 55.5459 92.8096 55.2796C93.2144 55.0097 93.7294 54.8747 94.3544 54.8747C94.9225 54.8747 95.4179 54.9937 95.8405 55.2316C96.2631 55.4695 96.5898 55.8176 96.8206 56.2757C97.055 56.7338 97.1722 57.2931 97.1722 57.9536V63.1631H95.2439V58.2519C95.2439 57.7014 95.1019 57.2735 94.8178 56.9681C94.5372 56.6592 94.1431 56.5047 93.6353 56.5047C93.2943 56.5047 92.9889 56.5793 92.7191 56.7284C92.4527 56.874 92.2432 57.0853 92.0905 57.3623C91.9414 57.6393 91.8668 57.9749 91.8668 58.3691ZM102.76 63.3229C101.94 63.3229 101.231 63.1524 100.635 62.8115C100.042 62.4671 99.5852 61.9806 99.2656 61.352C98.946 60.7199 98.7862 59.9759 98.7862 59.1201C98.7862 58.2785 98.946 57.5399 99.2656 56.9042C99.5887 56.265 100.04 55.7678 100.619 55.4127C101.197 55.0541 101.877 54.8747 102.659 54.8747C103.163 54.8747 103.639 54.9564 104.086 55.1198C104.537 55.2796 104.935 55.5281 105.279 55.8655C105.627 56.2029 105.901 56.6325 106.1 57.1546C106.299 57.673 106.398 58.2909 106.398 59.0083V59.5995H99.6917V58.2998H104.55C104.546 57.9305 104.466 57.602 104.31 57.3144C104.154 57.0232 103.935 56.7941 103.655 56.6272C103.378 56.4603 103.055 56.3769 102.685 56.3769C102.291 56.3769 101.945 56.4727 101.647 56.6645C101.348 56.8527 101.116 57.1013 100.949 57.4102C100.785 57.7156 100.702 58.0512 100.698 58.417V59.5516C100.698 60.0274 100.785 60.4358 100.959 60.7767C101.133 61.1141 101.377 61.3733 101.689 61.5544C102.002 61.732 102.367 61.8208 102.787 61.8208C103.067 61.8208 103.321 61.7817 103.548 61.7036C103.776 61.6219 103.973 61.5029 104.14 61.3467C104.306 61.1904 104.432 60.9969 104.518 60.7661L106.318 60.9685C106.205 61.4443 105.988 61.8598 105.668 62.2149C105.352 62.5665 104.947 62.8399 104.454 63.0352C103.96 63.227 103.396 63.3229 102.76 63.3229ZM111.066 63.3069C110.423 63.3069 109.848 63.1418 109.34 62.8115C108.832 62.4813 108.431 62.0019 108.136 61.3733C107.841 60.7448 107.694 59.9813 107.694 59.0828C107.694 58.1737 107.843 57.4067 108.141 56.7817C108.443 56.1531 108.85 55.6791 109.361 55.3595C109.872 55.0363 110.442 54.8747 111.071 54.8747C111.55 54.8747 111.944 54.9564 112.253 55.1198C112.562 55.2796 112.807 55.4731 112.989 55.7004C113.17 55.9241 113.31 56.1354 113.409 56.3343H113.489V52.254H115.423V63.1631H113.527V61.874H113.409C113.31 62.0729 113.166 62.2842 112.978 62.5079C112.79 62.7281 112.541 62.9163 112.232 63.0725C111.923 63.2288 111.534 63.3069 111.066 63.3069ZM111.604 61.7249C112.012 61.7249 112.36 61.6148 112.648 61.3946C112.935 61.1709 113.154 60.8602 113.303 60.4624C113.452 60.0647 113.527 59.6013 113.527 59.0722C113.527 58.5431 113.452 58.0832 113.303 57.6926C113.157 57.3019 112.941 56.9983 112.653 56.7817C112.369 56.5651 112.019 56.4568 111.604 56.4568C111.174 56.4568 110.815 56.5686 110.528 56.7923C110.24 57.0161 110.023 57.325 109.878 57.7192C109.732 58.1134 109.659 58.5644 109.659 59.0722C109.659 59.5835 109.732 60.0399 109.878 60.4411C110.027 60.8389 110.245 61.1531 110.533 61.384C110.824 61.6112 111.181 61.7249 111.604 61.7249ZM122.692 59.722V54.9813H124.621V63.1631H122.751V61.7089H122.666C122.481 62.167 122.178 62.5416 121.755 62.8328C121.336 63.124 120.819 63.2696 120.205 63.2696C119.669 63.2696 119.195 63.1507 118.783 62.9127C118.374 62.6713 118.055 62.3215 117.824 61.8634C117.593 61.4017 117.478 60.8442 117.478 60.1908V54.9813H119.406V59.8925C119.406 60.411 119.548 60.8229 119.832 61.1283C120.116 61.4337 120.489 61.5864 120.951 61.5864C121.235 61.5864 121.51 61.5171 121.776 61.3786C122.043 61.2401 122.261 61.0342 122.431 60.7607C122.605 60.4838 122.692 60.1375 122.692 59.722ZM128.532 52.254V63.1631H126.604V52.254H128.532ZM134.137 63.3229C133.317 63.3229 132.608 63.1524 132.011 62.8115C131.418 62.4671 130.962 61.9806 130.643 61.352C130.323 60.7199 130.163 59.9759 130.163 59.1201C130.163 58.2785 130.323 57.5399 130.643 56.9042C130.966 56.265 131.417 55.7678 131.996 55.4127C132.574 55.0541 133.254 54.8747 134.036 54.8747C134.54 54.8747 135.016 54.9564 135.463 55.1198C135.914 55.2796 136.312 55.5281 136.656 55.8655C137.004 56.2029 137.278 56.6325 137.477 57.1546C137.676 57.673 137.775 58.2909 137.775 59.0083V59.5995H131.069V58.2998H135.927C135.923 57.9305 135.843 57.602 135.687 57.3144C135.531 57.0232 135.312 56.7941 135.032 56.6272C134.755 56.4603 134.432 56.3769 134.062 56.3769C133.668 56.3769 133.322 56.4727 133.024 56.6645C132.725 56.8527 132.493 57.1013 132.326 57.4102C132.162 57.7156 132.079 58.0512 132.075 58.417V59.5516C132.075 60.0274 132.162 60.4358 132.336 60.7767C132.51 61.1141 132.754 61.3733 133.066 61.5544C133.379 61.732 133.744 61.8208 134.163 61.8208C134.444 61.8208 134.698 61.7817 134.925 61.7036C135.152 61.6219 135.35 61.5029 135.516 61.3467C135.683 61.1904 135.809 60.9969 135.895 60.7661L137.695 60.9685C137.581 61.4443 137.365 61.8598 137.045 62.2149C136.729 62.5665 136.324 62.8399 135.831 63.0352C135.337 63.227 134.773 63.3229 134.137 63.3229ZM144.365 57.8257V59.4131H139.454V57.8257H144.365ZM150.538 54.9813V56.4727H145.701V54.9813H150.538ZM146.91 63.1631V54.2089C146.91 53.6585 147.024 53.2004 147.251 52.8346C147.482 52.4688 147.791 52.1954 148.178 52.0143C148.565 51.8332 148.995 51.7426 149.467 51.7426C149.801 51.7426 150.097 51.7693 150.357 51.8225C150.616 51.8758 150.808 51.9237 150.932 51.9664L150.548 53.4578C150.467 53.433 150.364 53.4081 150.239 53.3833C150.115 53.3548 149.977 53.3406 149.824 53.3406C149.465 53.3406 149.211 53.4276 149.062 53.6017C148.917 53.7721 148.844 54.0171 148.844 54.3367V63.1631H146.91ZM152.048 63.1631V54.9813H153.918V56.3449H154.003C154.152 55.8726 154.408 55.5086 154.77 55.2529C155.136 54.9937 155.553 54.8641 156.022 54.8641C156.128 54.8641 156.247 54.8694 156.379 54.8801C156.513 54.8872 156.625 54.8996 156.714 54.9173V56.6911C156.632 56.6627 156.503 56.6379 156.325 56.6166C156.151 56.5917 155.983 56.5793 155.819 56.5793C155.468 56.5793 155.152 56.6556 154.871 56.8083C154.594 56.9575 154.376 57.1652 154.216 57.4316C154.056 57.6979 153.976 58.0051 153.976 58.3531V63.1631H152.048ZM161.28 63.3229C160.46 63.3229 159.752 63.1524 159.155 62.8115C158.562 62.4671 158.106 61.9806 157.786 61.352C157.466 60.7199 157.307 59.9759 157.307 59.1201C157.307 58.2785 157.466 57.5399 157.786 56.9042C158.109 56.265 158.56 55.7678 159.139 55.4127C159.718 55.0541 160.398 54.8747 161.179 54.8747C161.683 54.8747 162.159 54.9564 162.607 55.1198C163.058 55.2796 163.455 55.5281 163.8 55.8655C164.148 56.2029 164.421 56.6325 164.62 57.1546C164.819 57.673 164.919 58.2909 164.919 59.0083V59.5995H158.212V58.2998H163.07C163.067 57.9305 162.987 57.602 162.83 57.3144C162.674 57.0232 162.456 56.7941 162.175 56.6272C161.898 56.4603 161.575 56.3769 161.206 56.3769C160.812 56.3769 160.465 56.4727 160.167 56.6645C159.869 56.8527 159.636 57.1013 159.469 57.4102C159.306 57.7156 159.223 58.0512 159.219 58.417V59.5516C159.219 60.0274 159.306 60.4358 159.48 60.7767C159.654 61.1141 159.897 61.3733 160.21 61.5544C160.522 61.732 160.888 61.8208 161.307 61.8208C161.588 61.8208 161.841 61.7817 162.069 61.7036C162.296 61.6219 162.493 61.5029 162.66 61.3467C162.827 61.1904 162.953 60.9969 163.038 60.7661L164.839 60.9685C164.725 61.4443 164.508 61.8598 164.189 62.2149C163.873 62.5665 163.468 62.8399 162.974 63.0352C162.481 63.227 161.916 63.3229 161.28 63.3229ZM170.172 63.3229C169.352 63.3229 168.643 63.1524 168.047 62.8115C167.454 62.4671 166.997 61.9806 166.678 61.352C166.358 60.7199 166.198 59.9759 166.198 59.1201C166.198 58.2785 166.358 57.5399 166.678 56.9042C167.001 56.265 167.452 55.7678 168.031 55.4127C168.61 55.0541 169.29 54.8747 170.071 54.8747C170.575 54.8747 171.051 54.9564 171.498 55.1198C171.949 55.2796 172.347 55.5281 172.692 55.8655C173.04 56.2029 173.313 56.6325 173.512 57.1546C173.711 57.673 173.81 58.2909 173.81 59.0083V59.5995H167.104V58.2998H171.962C171.958 57.9305 171.878 57.602 171.722 57.3144C171.566 57.0232 171.347 56.7941 171.067 56.6272C170.79 56.4603 170.467 56.3769 170.097 56.3769C169.703 56.3769 169.357 56.4727 169.059 56.6645C168.76 56.8527 168.528 57.1013 168.361 57.4102C168.198 57.7156 168.114 58.0512 168.111 58.417V59.5516C168.111 60.0274 168.198 60.4358 168.372 60.7767C168.546 61.1141 168.789 61.3733 169.101 61.5544C169.414 61.732 169.78 61.8208 170.199 61.8208C170.479 61.8208 170.733 61.7817 170.96 61.7036C171.188 61.6219 171.385 61.5029 171.552 61.3467C171.719 61.1904 171.845 60.9969 171.93 60.7661L173.73 60.9685C173.617 61.4443 173.4 61.8598 173.08 62.2149C172.764 62.5665 172.36 62.8399 171.866 63.0352C171.372 63.227 170.808 63.3229 170.172 63.3229Z" fill="#9C9B9D" fill-opacity="0.8"/>
<path d="M23.5833 60H9.33333C7.65363 60 6.04272 59.3327 4.85499 58.145C3.66726 56.9573 3 55.3464 3 53.6667V15.6667C3 13.987 3.66726 12.3761 4.85499 11.1883C6.04272 10.0006 7.65363 9.33333 9.33333 9.33333H47.3333C49.013 9.33333 50.6239 10.0006 51.8117 11.1883C52.9994 12.3761 53.6667 13.987 53.6667 15.6667V25.1667M41 3V15.6667M15.6667 3V15.6667M3 28.3333H34.6667" stroke="#CCCCCC" stroke-width="5" stroke-linecap="round" stroke-linejoin="round"/>
<path d="M34.6667 50.4997C34.6667 53.8591 36.0013 57.0809 38.3767 59.4564C40.7522 61.8318 43.974 63.1663 47.3334 63.1663C50.6928 63.1663 53.9146 61.8318 56.2901 59.4564C58.6656 57.0809 60.0001 53.8591 60.0001 50.4997C60.0001 47.1403 58.6656 43.9184 56.2901 41.543C53.9146 39.1675 50.6928 37.833 47.3334 37.833C43.974 37.833 40.7522 39.1675 38.3767 41.543C36.0013 43.9184 34.6667 47.1403 34.6667 50.4997Z" stroke="#CCCCCC" stroke-width="5" stroke-linecap="round" stroke-linejoin="round"/>
<path d="M47.3333 45.75V50.5L48.9166 52.0833" stroke="#CCCCCC" stroke-width="4" stroke-linecap="round" stroke-linejoin="round"/>
</svg>
